<svg width="52" height="52" viewBox="0 0 52 52" fill="none" xmlns="http://www.w3.org/2000/svg">
<circle cx="26" cy="26" r="26" fill="#FF6700"/>
<g clip-path="url(#clip0_198_3029)">
<path d="M41.3255 21.2228C42.0429 21.2228 42.6242 20.6261 42.6242 19.8896C42.6242 19.1531 42.0429 18.5564 41.3255 18.5564C40.6081 18.5564 40.0269 19.1531 40.0269 19.8896C40.0269 20.6261 40.6081 21.2228 41.3255 21.2228Z" fill="white"/>
<path d="M41.3175 22.2643C40.8196 22.2643 40.3934 22.5463 40.1785 22.9706L37.3581 27.4463C37.3076 27.5259 37.1937 27.5259 37.1444 27.4463L35.5076 24.8487L34.9851 24.0206C34.5084 23.2648 33.4316 23.2648 32.9549 24.0206L30.7956 27.4463C30.7451 27.5259 30.6324 27.5259 30.5819 27.4463L28.9415 24.8499L28.4202 24.0218C27.9435 23.266 26.8667 23.266 26.39 24.0218L24.2365 27.4379C24.1861 27.5175 24.0722 27.5175 24.0228 27.4379L22.3907 24.8499L21.8694 24.0218C21.3927 23.266 20.3159 23.266 19.8392 24.0218L17.6846 27.4355C17.6341 27.5151 17.5202 27.5151 17.4709 27.4355L16.4493 25.8142L15.7166 24.6522C14.863 23.2177 13.326 22.2631 11.5682 22.2631C8.76893 22.2631 6.5227 24.6932 6.72231 27.6115C6.89257 30.0995 8.87578 32.098 11.3017 32.2306C13.1674 32.3331 14.8195 31.3543 15.7166 29.8487C15.7624 29.7716 15.8693 29.7692 15.9162 29.8439L16.5644 30.8721C17.0411 31.6279 18.1178 31.6279 18.5946 30.8721L18.7801 30.578L20.7469 27.4572C20.7973 27.3776 20.9112 27.3776 20.9606 27.4572L22.588 30.0404L23.1187 30.883C23.5943 31.64 24.6733 31.64 25.1489 30.883L25.3227 30.5973L27.2965 27.4572C27.347 27.3776 27.4609 27.3776 27.5102 27.4572L29.1376 30.0392L29.6684 30.8818C30.1439 31.6388 31.223 31.6388 31.6985 30.8818L31.8664 30.6154L33.8602 27.4548C33.9107 27.3752 34.0246 27.3752 34.0739 27.4548L35.7025 30.038L36.2333 30.8806C36.7088 31.6376 37.7879 31.6376 38.2634 30.8806L38.4313 30.6142L39.9308 28.2359C39.959 28.1913 40.0259 28.2118 40.0259 28.2648V30.9131C40.0259 31.6448 40.6036 32.2379 41.3163 32.2379C42.0291 32.2379 42.6068 31.6448 42.6068 30.9131V23.5878C42.6079 22.8573 42.0302 22.2643 41.3175 22.2643ZM11.567 29.3485C10.4375 29.3485 9.52158 28.4083 9.52158 27.2487C9.52158 26.089 10.4375 25.1488 11.567 25.1488C12.6966 25.1488 13.6125 26.089 13.6125 27.2487C13.6125 28.4083 12.6966 29.3485 11.567 29.3485Z" fill="white"/>
</g>
<defs>
<clipPath id="clip0_198_3029">
<rect width="35.9138" height="13.6815" fill="white" transform="translate(6.70947 18.5564)"/>
</clipPath>
</defs>
</svg>
