<svg width="146" height="17" viewBox="0 0 146 17" fill="none" xmlns="http://www.w3.org/2000/svg">
<g clip-path="url(#clip0_494_30065)">
<path d="M114.973 6.40206C114.415 5.84279 113.756 5.448 113.003 5.21114C112.243 4.97427 111.477 4.91505 110.697 5.04664C110.085 5.1585 109.514 5.36247 108.976 5.67171C108.438 5.98096 107.981 6.38232 107.605 6.8758H107.591C107.49 7.00739 107.403 7.13241 107.329 7.264C107.107 7.61273 106.932 7.98119 106.818 8.37597C106.704 8.77075 106.63 9.16554 106.61 9.5669C106.59 9.96826 106.623 10.3696 106.711 10.7644C106.798 11.1592 106.932 11.5474 107.114 11.9093C107.309 12.2843 107.544 12.6265 107.826 12.9357C108.109 13.2449 108.425 13.5147 108.781 13.7384C109.131 13.9687 109.507 14.1529 109.917 14.2911C110.321 14.4293 110.737 14.5148 111.168 14.5412C111.988 14.5938 112.781 14.4425 113.541 14.1003C114.3 13.7582 114.932 13.2581 115.43 12.6001C115.732 12.1922 115.968 11.7514 116.136 11.2645C116.304 10.7841 116.385 10.2907 116.385 9.78403C116.398 9.1458 116.277 8.53388 116.028 7.94171C115.779 7.34954 115.43 6.82974 114.973 6.38232V6.40206ZM108.949 11.3697C108.922 11.3171 108.895 11.2645 108.869 11.2118C108.942 11.3566 109.023 11.5013 109.111 11.6395C109.05 11.5474 108.996 11.4553 108.949 11.3632V11.3697ZM114.428 10.4354C114.341 10.7907 114.193 11.1263 113.978 11.4355C113.783 11.7053 113.554 11.9356 113.279 12.133C113.003 12.3304 112.707 12.4817 112.378 12.5804C112.042 12.6923 111.699 12.7383 111.342 12.7252C110.986 12.712 110.65 12.633 110.321 12.4949C110.005 12.3567 109.722 12.1725 109.467 11.9487C109.218 11.725 109.01 11.475 108.848 11.1855C108.828 11.1526 108.815 11.1197 108.795 11.0868C108.6 10.7315 108.492 10.3433 108.472 9.9222C108.438 9.38267 108.553 8.87603 108.808 8.40229C109.063 7.92855 109.42 7.54035 109.877 7.25742C110.233 7.04029 110.616 6.90212 111.033 6.8429C111.45 6.78368 111.853 6.81 112.25 6.91528C112.653 7.01397 113.023 7.19162 113.346 7.45481C113.669 7.71142 113.937 8.02067 114.139 8.37597C114.3 8.65232 114.415 8.97472 114.475 9.34319C114.529 9.71165 114.509 10.0735 114.422 10.4288L114.428 10.4354Z" fill="black"/>
<path d="M78.4617 4.92821C78.2734 4.92821 78.0986 4.98085 77.9373 5.0927H77.9238L75.302 7.80354C75.1204 7.96145 74.9255 8.04041 74.7036 8.04041C74.4818 8.04041 74.2667 7.96145 74.0919 7.80354L71.5507 5.17824L71.4297 5.07296V5.08612C71.2683 4.98085 71.0935 4.92163 70.9053 4.92163C70.6431 4.92163 70.428 5.00717 70.2465 5.18482C70.0649 5.36247 69.9775 5.57302 69.9775 5.82963V13.5937C69.9775 13.8503 70.0649 14.0608 70.2465 14.2385C70.428 14.4161 70.6498 14.5017 70.912 14.5017C71.1742 14.5017 71.396 14.4161 71.5776 14.2385C71.7591 14.0608 71.8465 13.8503 71.8465 13.5937V8.00093L72.9288 9.18528C73.1574 9.42215 73.4263 9.5998 73.7356 9.72481C74.0448 9.84983 74.3675 9.91562 74.7036 9.91562C75.0398 9.91562 75.3625 9.84983 75.665 9.72481C75.9675 9.5998 76.2431 9.41557 76.4784 9.18528L77.5406 8.01409V13.6003C77.5406 13.8569 77.628 14.0674 77.8028 14.2451C77.9776 14.4227 78.1927 14.5083 78.4549 14.5083C78.7171 14.5083 78.9322 14.4227 79.1138 14.2451C79.2953 14.0674 79.3827 13.8569 79.3827 13.6003V5.83621C79.3827 5.5796 79.2953 5.36905 79.1138 5.1914C78.9322 5.01375 78.7171 4.92821 78.4549 4.92821H78.4617Z" fill="black"/>
<path d="M100.532 4.96752C100.29 4.96752 100.082 5.03989 99.9069 5.19123C99.6716 5.38862 99.5708 5.69786 99.5708 5.99395V13.4422C99.5708 13.7448 99.6716 14.0541 99.9069 14.2515C100.082 14.3962 100.29 14.4752 100.532 14.4752C100.801 14.4752 101.03 14.3831 101.225 14.1988C101.413 14.0146 101.514 13.7975 101.514 13.5409V5.89526C101.514 5.63865 101.42 5.42152 101.225 5.23728C101.036 5.05305 100.801 4.96094 100.532 4.96094V4.96752Z" fill="black"/>
<path d="M138.22 10.6392H144.082C144.344 10.6392 144.566 10.5537 144.748 10.376C144.929 10.1984 145.023 9.98784 145.023 9.73781C145.023 9.48778 144.929 9.27723 144.748 9.10616C144.566 8.93509 144.344 8.84955 144.082 8.84955H138.22V6.75721H144.082C144.344 6.75721 144.566 6.67167 144.748 6.49402C144.929 6.31637 145.023 6.10582 145.023 5.85579C145.023 5.60576 144.929 5.39521 144.748 5.22414C144.566 5.05307 144.344 4.96753 144.082 4.96753H137.272C137.097 4.96753 136.936 5.01359 136.795 5.09912C136.781 5.1057 136.768 5.11228 136.761 5.11886C136.748 5.12544 136.734 5.1386 136.727 5.14518C136.694 5.1715 136.653 5.19782 136.62 5.23072C136.438 5.40179 136.344 5.61234 136.344 5.86237V13.5409C136.344 13.5409 136.344 13.554 136.344 13.5606C136.344 13.5672 136.344 13.5738 136.344 13.5804C136.344 13.8304 136.438 14.0409 136.62 14.2186C136.801 14.3962 137.023 14.4818 137.285 14.4818H144.075C144.338 14.4818 144.559 14.3962 144.741 14.2186C144.922 14.0409 145.017 13.8304 145.017 13.5804C145.017 13.3303 144.922 13.1198 144.741 12.9487C144.559 12.7776 144.338 12.6921 144.075 12.6921H138.213V10.659L138.22 10.6392Z" fill="black"/>
<path d="M92.9826 4.89526C92.7204 4.89526 92.5053 4.98738 92.3238 5.16503C92.1422 5.34268 92.0548 5.55981 92.0548 5.81642V11.0604L86.3607 5.25715C86.1926 5.05976 85.9775 4.96106 85.7153 4.9479C85.4531 4.94132 85.2313 5.0137 85.043 5.18477C84.8615 5.34926 84.7607 5.54665 84.7405 5.77036L84.7271 5.78352V13.6331C84.7271 13.8897 84.8212 14.1003 85.0027 14.2779C85.1842 14.4556 85.406 14.5411 85.6682 14.5411C85.9304 14.5411 86.1456 14.4556 86.3271 14.2779C86.5086 14.1003 86.596 13.8897 86.596 13.6331V8.27723L92.2901 14.0937L92.3036 14.1068L92.3305 14.1332C92.3305 14.1332 92.3641 14.1595 92.3775 14.1595C92.3775 14.1726 92.3775 14.1726 92.3843 14.1726C92.391 14.1726 92.391 14.1726 92.391 14.1858L92.4515 14.2121L92.4649 14.2253C92.4649 14.2253 92.5053 14.2516 92.5254 14.2516L92.5389 14.2648L92.5994 14.2911C92.5994 14.2911 92.6128 14.2911 92.6128 14.2977C92.6128 14.3042 92.6128 14.3042 92.6263 14.3042C92.6397 14.3042 92.6465 14.3042 92.6465 14.3108C92.6465 14.3108 92.6599 14.3174 92.6666 14.3174C92.6733 14.3174 92.6868 14.3174 92.6868 14.324C92.6868 14.3306 92.7002 14.3306 92.707 14.3306C92.7271 14.3306 92.7406 14.3306 92.754 14.3437H92.8011C92.8011 14.3437 92.8212 14.3437 92.8212 14.3503C92.8212 14.3503 92.8347 14.3569 92.8414 14.3569H93.0633C93.0633 14.3569 93.0969 14.3569 93.1036 14.3503C93.1036 14.3503 93.117 14.3437 93.1238 14.3437H93.1507C93.1507 14.3437 93.1843 14.3437 93.191 14.3371C93.191 14.3371 93.2044 14.3306 93.2112 14.3306L93.2381 14.3174C93.2381 14.3174 93.2717 14.3174 93.2784 14.3108C93.2784 14.3108 93.2986 14.3042 93.3187 14.3042C93.3187 14.2977 93.3187 14.2911 93.3322 14.2911C93.3523 14.2911 93.3725 14.2845 93.3927 14.2648H93.4061C93.4061 14.2648 93.4397 14.245 93.4465 14.245C93.4465 14.245 93.4666 14.2319 93.4868 14.2253C93.5137 14.199 93.5406 14.1792 93.5607 14.1661L93.5876 14.1397L93.6145 14.1134L93.675 14.0542V14.041C93.675 14.041 93.7086 14.0213 93.7154 14.0147C93.7154 14.0082 93.7288 13.995 93.7355 13.9884V13.9753C93.7355 13.9753 93.7557 13.9555 93.7557 13.9489C93.7557 13.9424 93.7692 13.9292 93.7759 13.9226V13.9095C93.7759 13.9095 93.8028 13.87 93.8028 13.8502C93.8095 13.8437 93.8162 13.8305 93.8162 13.8239C93.8229 13.8173 93.8297 13.7976 93.8297 13.7647C93.8364 13.7581 93.8431 13.745 93.8431 13.7384C93.8431 13.7318 93.8431 13.7186 93.8498 13.7186C93.8566 13.7186 93.8565 13.7055 93.8565 13.6989C93.8565 13.6792 93.8566 13.666 93.87 13.6528V13.5081L93.8834 13.4949V5.823C93.8834 5.56639 93.7893 5.34926 93.6078 5.17161C93.4263 4.99396 93.2044 4.90184 92.9423 4.90184L92.9826 4.89526Z" fill="black"/>
<path d="M129.749 4.89526C129.487 4.89526 129.272 4.98738 129.09 5.16503C128.909 5.34268 128.821 5.55981 128.821 5.81642V11.0604L123.127 5.25715C122.959 5.05976 122.744 4.96106 122.482 4.9479C122.22 4.94132 121.998 5.0137 121.81 5.18477C121.628 5.34926 121.527 5.54665 121.507 5.77036L121.494 5.78352V13.6331C121.494 13.8897 121.588 14.1003 121.769 14.2779C121.951 14.4556 122.173 14.5411 122.435 14.5411C122.697 14.5411 122.912 14.4556 123.094 14.2779C123.275 14.1003 123.363 13.8897 123.363 13.6331V8.27723L129.057 14.0937L129.07 14.1068L129.097 14.1332C129.097 14.1332 129.131 14.1595 129.144 14.1595C129.144 14.1726 129.144 14.1726 129.151 14.1726C129.158 14.1726 129.158 14.1726 129.158 14.1858L129.218 14.2121L129.232 14.2253C129.232 14.2253 129.272 14.2516 129.292 14.2516L129.305 14.2648L129.366 14.2911C129.366 14.2911 129.379 14.2911 129.379 14.2977C129.379 14.3042 129.379 14.3042 129.393 14.3042C129.406 14.3042 129.413 14.3042 129.413 14.3108C129.413 14.3108 129.426 14.3174 129.433 14.3174C129.44 14.3174 129.453 14.3174 129.453 14.324C129.453 14.3306 129.467 14.3306 129.474 14.3306C129.494 14.3306 129.507 14.3306 129.521 14.3437H129.568C129.568 14.3437 129.588 14.3437 129.588 14.3503C129.588 14.3503 129.601 14.3569 129.608 14.3569H129.83C129.83 14.3569 129.863 14.3569 129.87 14.3503C129.87 14.3503 129.884 14.3437 129.89 14.3437H129.917C129.917 14.3437 129.951 14.3437 129.958 14.3371C129.958 14.3371 129.971 14.3306 129.978 14.3306L130.005 14.3174C130.005 14.3174 130.038 14.3174 130.045 14.3108C130.045 14.3108 130.065 14.3042 130.085 14.3042C130.085 14.2977 130.085 14.2911 130.099 14.2911C130.119 14.2911 130.139 14.2845 130.159 14.2648H130.173C130.173 14.2648 130.206 14.245 130.213 14.245C130.213 14.245 130.233 14.2319 130.253 14.2253C130.28 14.199 130.307 14.1792 130.327 14.1661L130.354 14.1397L130.381 14.1134L130.442 14.0542V14.041C130.442 14.041 130.475 14.0213 130.482 14.0147C130.482 14.0081 130.495 13.995 130.502 13.9884V13.9753C130.502 13.9753 130.522 13.9555 130.522 13.9489C130.522 13.9424 130.536 13.9292 130.542 13.9226V13.9095C130.542 13.9095 130.569 13.87 130.569 13.8502C130.576 13.8437 130.583 13.8305 130.583 13.8239C130.59 13.8173 130.596 13.7976 130.596 13.7647C130.603 13.7581 130.61 13.745 130.61 13.7384C130.61 13.7318 130.61 13.7186 130.616 13.7186C130.623 13.7186 130.623 13.7055 130.623 13.6989C130.623 13.6792 130.623 13.666 130.637 13.6528V13.5081L130.65 13.4949V5.81642C130.65 5.55981 130.556 5.34268 130.374 5.16503C130.193 4.98738 129.971 4.89526 129.709 4.89526H129.749Z" fill="black"/>
<path d="M63.3152 6.34957C62.7572 5.7903 62.0984 5.39551 61.3454 5.15864C60.5857 4.92178 59.8193 4.86256 59.0395 4.99415C58.4277 5.10601 57.8563 5.30998 57.3185 5.61922C56.7807 5.92847 56.3235 6.32983 55.947 6.82331H55.9336C55.8328 6.9549 55.7454 7.07992 55.6781 7.21151C55.4563 7.56024 55.2815 7.9287 55.1672 8.32348C55.0529 8.71826 54.979 9.11305 54.9588 9.51441C54.9386 9.91577 54.9722 10.3171 55.0596 10.7119C55.147 11.1067 55.2815 11.4949 55.463 11.8568C55.658 12.2318 55.8933 12.574 56.1756 12.8832C56.458 13.1925 56.7739 13.4622 57.1302 13.6859C57.4798 13.9162 57.8563 14.1005 58.2664 14.2386C58.6698 14.3768 59.0866 14.4623 59.5168 14.4887C60.337 14.5413 61.1303 14.39 61.89 14.0478C62.6496 13.7057 63.2816 13.2056 63.7791 12.5476C64.0816 12.1397 64.3169 11.6989 64.4849 11.212C64.653 10.7317 64.7337 10.2382 64.7337 9.73154C64.7471 9.09331 64.6261 8.48139 64.3774 7.88922C64.1286 7.29705 63.7791 6.77725 63.3219 6.32983L63.3152 6.34957ZM57.2916 11.3172C57.2647 11.2646 57.2378 11.212 57.2109 11.1659C57.2849 11.3107 57.3655 11.4554 57.4529 11.5936C57.3924 11.5015 57.3387 11.4094 57.2916 11.3172ZM62.7706 10.3829C62.6832 10.7382 62.5353 11.0738 62.3202 11.383C62.1252 11.6528 61.8967 11.8831 61.621 12.0805C61.3454 12.2779 61.0496 12.4292 60.7202 12.5279C60.3841 12.6398 60.0412 12.6858 59.6849 12.6727C59.3286 12.6595 58.9925 12.5805 58.663 12.4424C58.3471 12.3042 58.0647 12.12 57.8092 11.8963C57.5605 11.6725 57.3521 11.4225 57.1908 11.133C57.1706 11.1001 57.1571 11.0672 57.137 11.0343C56.942 10.679 56.8344 10.2908 56.8143 9.86971C56.7807 9.33017 56.895 8.82354 57.1504 8.3498C57.4059 7.87606 57.7622 7.48786 58.2193 7.20493C58.5756 6.9878 58.9588 6.84963 59.3756 6.79041C59.7925 6.73119 60.1958 6.75751 60.5925 6.86279C60.9958 6.96148 61.3656 7.13913 61.6883 7.40232C62.011 7.65893 62.2799 7.96818 62.4816 8.32348C62.6429 8.59983 62.7572 8.92223 62.8177 9.2907C62.8715 9.65916 62.8513 10.021 62.7639 10.3763L62.7706 10.3829Z" fill="black"/>
<path d="M44.2289 3.25037C45.146 3.25037 45.8894 2.52275 45.8894 1.62519C45.8894 0.727621 45.146 0 44.2289 0C43.3118 0 42.5684 0.727621 42.5684 1.62519C42.5684 2.52275 43.3118 3.25037 44.2289 3.25037Z" fill="#FF6700"/>
<path d="M44.2222 4.3689C43.5835 4.3689 43.039 4.71104 42.7634 5.23084L39.16 10.6854C39.0927 10.7841 38.9516 10.7841 38.8843 10.6854L36.7936 7.52057L36.128 6.51388C35.5162 5.59272 34.1448 5.59272 33.533 6.51388L30.77 10.6854C30.7027 10.7841 30.5616 10.7841 30.4943 10.6854L28.3968 7.52057L27.7313 6.51388C27.1195 5.59272 25.7481 5.59272 25.1363 6.51388L22.3867 10.6788C22.3195 10.7775 22.1783 10.7775 22.1111 10.6788L20.027 7.52715L19.3615 6.52046C18.7497 5.5993 17.3783 5.5993 16.7665 6.52046L14.0169 10.6788C13.9496 10.7775 13.8085 10.7775 13.7412 10.6788L12.437 8.70492L11.5026 7.29028C10.4135 5.54008 8.45044 4.38206 6.20504 4.38206C2.62853 4.3689 -0.242079 7.32976 0.0133852 10.8828C0.228513 13.916 2.76299 16.3505 5.86218 16.5084C8.24875 16.6335 10.3597 15.4425 11.5026 13.6068C11.5631 13.5147 11.6975 13.5081 11.758 13.6068L12.5849 14.8569C13.1967 15.7781 14.5681 15.7781 15.1799 14.8569L15.4152 14.5016L17.9295 10.6986C17.9967 10.5999 18.1379 10.5999 18.2051 10.6986L20.2825 13.8437L20.9615 14.8701C21.5665 15.7913 22.9447 15.7913 23.5565 14.8701L23.7783 14.5214L26.2993 10.6986C26.3666 10.5999 26.5077 10.5999 26.575 10.6986L28.6523 13.8437L29.3313 14.8701C29.9363 15.7913 31.3145 15.7913 31.9263 14.8701L32.1414 14.5477L34.6893 10.6986C34.7566 10.5999 34.8977 10.5999 34.965 10.6986L37.049 13.8437L37.728 14.8701C38.3331 15.7913 39.7112 15.7913 40.323 14.8701L40.5381 14.5477L42.4541 11.6526C42.4877 11.6 42.5751 11.6263 42.5751 11.6855V14.9096C42.5751 15.7978 43.3146 16.5216 44.2222 16.5216C45.1298 16.5216 45.8693 15.7978 45.8693 14.9096V5.98092C45.8693 5.09266 45.1298 4.3689 44.2222 4.3689ZM6.20504 13.0015C4.75965 13.0015 3.58989 11.8566 3.58989 10.442C3.58989 9.02732 4.75965 7.88246 6.20504 7.88246C7.65043 7.88246 8.82019 9.02732 8.82019 10.442C8.82019 11.8566 7.65043 13.0015 6.20504 13.0015Z" fill="#FF6700"/>
</g>
<defs>
<clipPath id="clip0_494_30065">
<rect width="145.023" height="16.5216" fill="white"/>
</clipPath>
</defs>
</svg>
