<?xml version="1.0" standalone="no"?>
<!DOCTYPE svg PUBLIC "-//W3C//DTD SVG 1.1//EN" "http://www.w3.org/Graphics/SVG/1.1/DTD/svg11.dtd">
<svg xmlns="http://www.w3.org/2000/svg">
<metadata>Copyright (C) 2022 by original authors @ fontello.com</metadata>
<defs>
<font id="fontello" horiz-adv-x="1000" >
<font-face font-family="fontello" font-weight="400" font-stretch="normal" units-per-em="1000" ascent="850" descent="-150" />
<missing-glyph horiz-adv-x="1000" />
<glyph glyph-name="arrow-left" unicode="&#xe800;" d="M853 372l-592 0 249 248c9 9 14 21 14 33 0 13-5 25-14 33-9 9-21 14-33 14-13 0-25-5-34-13l-329-328-3-3-2-4c-1-1-4-4-5-9-5-11-5-24 0-36 2-4 4-7 6-9 0 0 1-3 4-6l330-328c8-9 20-14 33-14 12 0 24 5 33 13 9 9 14 21 14 33 0 13-5 25-14 34l-249 248 592 0c26 0 47 21 47 47 0 26-21 47-47 47z" horiz-adv-x="1000" />

<glyph glyph-name="arrow-right" unicode="&#xe801;" d="M147 328h593l-249-248c-9-9-14-20-14-33 0-12 5-24 14-33 9-8 20-14 33-14 12 0 24 5 33 14l330 328 2 2 3 5c0 0 3 4 5 8 5 12 5 25 0 36-2 5-5 8-6 10 0 0-2 3-5 5l-329 328c-9 9-21 14-33 14-13 0-25-5-34-13-9-9-14-21-14-33 0-13 5-25 14-33l249-248h-592c-26 0-47-21-47-47 0-26 21-48 47-48z" horiz-adv-x="1000" />

<glyph glyph-name="bell" unicode="&#xe802;" d="M379 657l0 0c27 8 54 14 83 14 28 0 56-6 82-14l0 0c107-35 185-135 185-253v-214h-535v214c0 119 78 218 185 253z m408-467v214c0 141-91 262-217 306 0 1 0 3 0 4 1 4 1 8 1 13 0 60-49 110-109 110-61 0-110-50-110-110 0-5 0-9 1-13 0-1 0-3 0-4-126-44-216-165-216-306v-214c-60-1-108-50-108-109 0-60 49-110 110-110h169c23-62 83-108 154-108 71 0 130 46 153 108h170c60 0 109 50 109 110 0 59-48 108-107 109z m-325 589c28 0 52-23 52-52 0-1-1-2-1-3-17 3-34 5-51 5-18 0-35-2-52-5 0 1 0 1 0 1l0 0c0 1 0 2 0 2 0 29 23 52 52 52z m0-858c-38 0-71 20-90 50h179c-19-30-52-50-89-50z m323 108h-137-94-185-94-136c-29 0-52 23-52 52 0 28 23 52 52 52h646c28 0 52-24 52-52 0-29-24-52-52-52z" horiz-adv-x="923" />

<glyph glyph-name="check" unicode="&#xe803;" d="M474-83c-20 0-39 6-54 21l-331 332c-30 30-30 77 0 107 30 30 76 30 106 0l280-279 665 664c30 30 77 30 107 0 30-30 30-77 0-107l-718-717c-17-15-35-21-55-21z" horiz-adv-x="1333" />

<glyph glyph-name="close" unicode="&#xe804;" d="M748 669l-248-248-248 248c-19 19-51 19-70 0-20-20-20-51 0-71l247-248-247-248c-20-19-20-51 0-70 19-20 51-20 70 0l248 247 248-247c20-20 51-20 71 0 19 19 19 51 0 70l-248 248 248 248c19 20 19 51 0 71-20 19-51 19-71 0z" horiz-adv-x="1000" />

<glyph glyph-name="copy" unicode="&#xe805;" d="M75 450c0 69 56 125 125 125h400c69 0 125-56 125-125v-400c0-69-56-125-125-125h-400c-69 0-125 56-125 125v400z m125 75c-41 0-75-34-75-75v-400c0-41 34-75 75-75h400c41 0 75 34 75 75v400c0 41-34 75-75 75h-400z m25 75c0 69 56 125 125 125h400c69 0 125-56 125-125v-400c0-69-56-125-125-125v50c41 0 75 34 75 75v400c0 41-34 75-75 75h-400c-41 0-75-34-75-75h-50z" horiz-adv-x="1000" />

<glyph glyph-name="eye-hidden" unicode="&#xe806;" d="M500 570c203 0 357-175 375-220-18-44-172-220-375-220-203 0-357 176-375 220 18 45 172 220 375 220z m0 49c-234 0-423-215-423-269 0-54 189-269 423-269 234 0 423 215 423 269 0 54-189 269-423 269z m0-147c65 0 118-54 118-122 0-67-53-122-118-122-65 0-117 55-117 122 0 68 52 122 117 122z m0 49c-91 0-164-76-164-171 0-94 73-171 164-171 91 0 165 77 165 171 0 95-74 171-165 171z m-301 130c10 9 25 9 34 0l568-568c9-9 9-24 0-34-5-4-11-7-17-7-6 0-12 3-16 7l-569 568c-9 10-9 24 0 34z" horiz-adv-x="1000" />

<glyph glyph-name="heart" unicode="&#xe807;" d="M685 721c-75 0-143-37-185-93-42 56-110 93-185 93-128 0-232-104-232-233 0-50 8-95 22-138 66-208 269-333 369-367 14-5 38-5 52 0 100 34 303 159 369 367 14 43 22 88 22 138 0 129-104 233-232 233z" horiz-adv-x="1000" />

<glyph glyph-name="search" unicode="&#xe808;" d="M941-49l-256 256c53 63 85 144 85 233 0 199-161 360-360 360-199 0-360-161-360-360 0-199 161-360 360-360 89 0 170 32 232 85l256-256c6-6 14-9 21-9 8 0 16 3 21 9 13 11 13 31 1 42z m-531 189c-166 0-300 134-300 300 0 166 134 300 300 300 166 0 300-134 300-300 0-72-26-137-69-189-13-16-27-29-43-43-51-42-116-68-188-68z" horiz-adv-x="1000" />

<glyph glyph-name="share" unicode="&#xe809;" d="M700 250c-46 0-87-21-114-54l1 2-197 98c7 17 11 35 11 55 0 19-4 37-11 54l197 99-1 2c27-33 68-55 114-55 83 0 150 67 150 150 0 83-67 150-150 150-83 0-150-67-150-150 0-19 4-37 11-54l-197-99 1-2c-27 33-68 55-114 55-83 0-150-67-150-150 0-83 67-150 150-150 46 0 87 21 114 54l-1-2 197-98c-7-17-11-35-11-55 0-83 67-150 150-150 83 0 150 67 150 150 0 83-67 150-150 150z m0 450c55 0 100-45 100-100 0-55-45-100-100-100-55 0-100 45-100 100 0 55 45 100 100 100z m-450-450c-55 0-100 45-100 100 0 55 45 100 100 100 55 0 100-45 100-100 0-55-45-100-100-100z m450-250c-55 0-100 45-100 100 0 55 45 100 100 100 55 0 100-45 100-100 0-55-45-100-100-100z" horiz-adv-x="1000" />

<glyph glyph-name="faq" unicode="&#xe80a;" d="M504 508c21 0 38 17 38 38 0 21-17 37-38 37-20 0-37-16-37-37 0-21 17-38 37-38z m138 0c20 0 37 17 37 38 0 21-17 37-37 37-21 0-38-16-38-37 0-21 17-38 38-38z m137 0c21 0 38 17 38 38 0 21-17 37-38 37-20 0-37-16-37-37 0-21 17-38 37-38z m-319-145h26v18l-17 7-9-25z m30-86l18-20 0 0-18 20z m80 73v27h-10l-8-7 18-20z m-210 204c0 93 76 169 170 169v54c-123 0-223-100-223-223h53z m0-8v8h-53v-8h53z m109-158c-64 24-109 86-109 158h-53c0-95 59-176 143-208l19 50z m-36-25v-73h53v73h-53z m0-73c0-38 46-59 75-33l-36 40c5 5 14 1 14-7h-53z m75-33l80 73-36 40-80-73 36-40z m229 120h-167v-54h167v54z m170 169c0-93-76-169-170-169v-54c123 0 223 100 223 223h-53z m0 8v-8h53v8h-53z m-170 169c94 0 170-76 170-169h53c0 123-100 223-223 223v-54z m-207 0h207v54h-207v-54z m283-358v-103c0-69-56-125-125-125h-409c-69 0-125 56-125 125v209c0 70 56 125 125 125h59c4 20 11 38 21 54h-80c-99 0-179-80-179-179v-209c0-99 80-179 179-179h188v0h53v0h168c99 0 179 80 179 179v137c-16-14-34-25-54-34z" horiz-adv-x="1000" />

<glyph glyph-name="plus" unicode="&#xe80b;" d="M796 387h-259v259c0 21-16 37-37 37-21 0-37-16-37-37v-259h-259c-21 0-37-16-37-37 0-21 16-37 37-37h259v-259c0-21 16-37 37-37 21 0 37 16 37 37v259h259c21 0 37 16 37 37 0 21-16 37-37 37z" horiz-adv-x="1000" />

<glyph glyph-name="minus" unicode="&#xe80c;" d="M796 392h-592c-21 0-37-19-37-44 0-24 16-43 37-43h592c21 0 37 19 37 43 0 25-16 44-37 44z" horiz-adv-x="1000" />

<glyph glyph-name="email" unicode="&#xe80d;" d="M800 600h-600c-55 0-100-45-100-100v-350c0-55 45-100 100-100h600c55 0 100 45 100 100v350c0 55-45 100-100 100z m-600-50h600c28 0 50-22 50-50v-7l-311-232c-22-16-62-16-84 0l-305 227v12c0 28 23 50 50 50z m646-420l-224 131 116 86 112 84v-281c0-7-1-14-4-20z m-692 2c-2 5-4 12-4 18v276l82-61 142-106-220-127z m46-32l218 127 8-6c20-15 46-23 71-23 26 0 52 8 72 23l9 7 220-128h-598z" horiz-adv-x="1000" />

<glyph glyph-name="history" unicode="&#xe80e;" d="M675 300c-14 0-25-11-25-25v-134l-25-13-56-28-5-2c-13-6-18-21-11-34 4-8 13-14 22-14 4 0 8 1 11 3l100 50c1 0 2 1 3 2 2 1 3 2 5 3 1 1 1 3 2 4 1 2 2 3 3 5 0 1 1 3 1 5 0 1 0 2 0 3v150c0 14-11 25-25 25z m75 90v20c0 26-10 52-29 71l-242 240c-18 19-43 29-69 29h-10-200c-55 0-100-45-100-100v-600c0-55 45-100 100-100h263c51-61 127-100 212-100 152 0 275 123 275 275 0 126-84 232-200 265z m-300 289l230-229h-180c-27 0-50 23-50 50v179z m-200-579h152c3-36 13-69 29-100h-231c-27 0-50 23-50 50v600c0 28 23 50 50 50h200v-200c0-55 45-100 100-100h175 25v-1c-8 0-16 1-25 1-85 0-161-39-212-100h-213c-14 0-25-11-25-25 0-14 11-25 25-25h181c-16-30-26-64-29-100h-152c-14 0-25-11-25-25 0-14 11-25 25-25z m425-200c-53 0-101 19-139 50-18 14-35 31-47 50-20 29-32 64-36 100-1 9-2 17-2 25 0 9 1 17 2 25 4 37 16 71 36 100 13 19 29 36 47 50 38 31 86 50 139 50 9 0 17-1 25-2 18-2 34-6 50-12 87-31 150-113 150-211 0-124-101-225-225-225z m-425 500h75c14 0 25 11 25 25 0 14-11 25-25 25h-75c-14 0-25-11-25-25 0-14 11-25 25-25z" horiz-adv-x="1000" />

<glyph glyph-name="delete" unicode="&#xe80f;" d="M757 657h-140c0 51-42 93-93 93h-47c-51 0-93-42-93-93h-141c-51 0-93-42-93-94 0-35 20-66 50-82l33-403c6-43 46-76 93-76h348c48 0 87 33 93 76l34 403c29 16 49 46 49 82 1 52-42 94-93 94z m-280 46h47c25 0 46-21 46-46h-140c0 25 21 46 47 46z m244-620c-3-19-23-33-46-33h-349c-23 0-43 14-46 33l-32 387h505l-32-387z m36 434h-514c-25 0-46 21-46 46 0 26 21 47 46 47h514c26 0 47-21 47-47 0-25-21-46-47-46z m-257-374c13 0 24 10 24 23v234c0 13-11 23-24 23-13 0-23-10-23-23v-234c0-13 10-23 23-23z m-140 0c13 0 24 10 24 23v234c0 13-11 23-24 23-13 0-23-10-23-23v-234c0-13 10-23 23-23z m280 0c13 0 24 10 24 23v234c0 13-11 23-24 23-13 0-23-10-23-23v-234c0-13 10-23 23-23z" horiz-adv-x="1000" />

<glyph glyph-name="down" unicode="&#xe810;" d="M221 505c-17-17-17-43 0-59l250-250c16-17 42-17 59 0l250 250c16 16 16 42 0 59-17 16-43 16-59 0l-221-221-220 221c-17 16-43 16-59 0z" horiz-adv-x="1000" />

<glyph glyph-name="left" unicode="&#xe811;" d="M655 630c-17 16-43 16-59 0l-250-250c-17-17-17-43 0-59l250-250c16-17 42-17 59 0 16 16 16 42 0 59l-221 220 221 221c16 16 16 42 0 59z" horiz-adv-x="1000" />

<glyph glyph-name="right" unicode="&#xe812;" d="M346 71c16-17 42-17 59 0l250 250c16 16 16 42 0 59l-250 250c-17 16-43 16-59 0-17-17-17-43 0-59l220-221-220-220c-17-17-17-43 0-59z" horiz-adv-x="1000" />

<glyph glyph-name="up" unicode="&#xe813;" d="M780 196c16 16 16 42 0 59l-250 250c-17 16-43 16-59 0l-250-250c-17-17-17-43 0-59 16-17 42-17 59 0l220 220 221-220c16-17 42-17 59 0z" horiz-adv-x="1000" />

<glyph glyph-name="eye" unicode="&#xe814;" d="M500 570c203 0 357-175 375-220-18-44-172-220-375-220-203 0-357 176-375 220 18 45 172 220 375 220z m0 49c-234 0-423-215-423-269 0-54 189-269 423-269 234 0 423 215 423 269 0 54-189 269-423 269z m0-147c65 0 118-54 118-122 0-67-53-122-118-122-65 0-117 55-117 122 0 68 52 122 117 122z m0 49c-91 0-164-76-164-171 0-94 73-171 164-171 91 0 165 77 165 171 0 95-74 171-165 171z" horiz-adv-x="1000" />

<glyph glyph-name="setting" unicode="&#xe815;" d="M500 481c-73 0-131-58-131-131 0-73 58-131 131-131 73 0 131 58 131 131 0 73-58 131-131 131z m0-218c-48 0-87 39-87 87 0 48 39 88 87 88 48 0 88-40 88-88 0-48-40-87-88-87z m306 175h-53c-3 0-7 2-8 5-2 5-4 9-6 14-1 4-1 8 2 10l37 37c17 18 17 46 0 62l-61 62c-9 8-20 13-31 13-12 0-23-5-32-13l-37-37c-2-3-7-4-10-2-5 2-9 4-14 6-4 1-6 5-6 8v53c0 24-20 44-44 44h-87c-24 0-44-20-44-44v-53c0-4-2-7-6-8-4-2-9-4-14-6-3-1-7-1-10 2l-37 37c-9 9-20 13-31 13-11 0-22-4-31-12l-62-62c-17-17-17-45 0-62l38-37c2-3 3-7 1-10-2-5-4-10-6-14-1-4-5-6-8-6h-52c-24 0-44-20-44-44v-87c0-24 20-44 44-44h53c3 0 7-2 8-6 2-5 4-9 6-14 1-3 1-7-2-10l-37-37c-17-17-17-45 0-62l61-61c9-9 20-13 32-13 11 0 22 4 31 13l37 37c2 2 7 3 10 2 5-3 9-4 14-7 4-1 6-4 6-8v-53c0-24 20-44 44-44h87c24 0 44 20 44 44v53c0 3 2 7 6 8 4 2 9 4 14 6 3 1 7 1 10-2l37-37c8-9 20-13 31-13 11 0 22 4 31 13l62 61c17 18 17 46 0 62l-37 37c-3 3-4 7-2 10 2 5 4 10 5 14 2 4 5 6 9 6h52c24 0 44 20 44 44v88c0 24-20 44-44 44z m0-114c0-10-8-18-17-18h-42c-18 0-35-12-41-29-3-7-6-14-9-21-8-17-4-37 9-50l29-29c7-7 7-18 0-25l-36-37c-7-7-18-7-25 0l-30 29c-8 9-19 13-31 13-6 0-12-1-18-4-7-4-14-6-21-9-18-6-30-23-30-41v-42c0-9-8-17-18-17h-52c-10 0-18 8-18 17v42c0 18-12 35-29 41-7 3-14 6-21 9-6 3-13 4-19 4-11 0-23-4-31-13l-29-29c-7-7-18-7-25 0l-37 37c-7 7-7 18 0 25l29 29c14 13 17 33 9 50-3 7-6 14-9 21-6 17-23 29-41 29h-42c-9 0-17 8-17 18v52c0 10 8 18 17 18h42c18 0 35 12 41 29 3 8 6 15 9 21 8 17 4 37-9 50l-29 29c-7 7-7 18 0 25l37 37c7 7 18 7 24 0l30-29c8-8 20-13 31-13 7 0 13 2 19 5 7 3 14 6 21 9 17 6 29 22 29 41v41c0 9 8 17 18 17h52c10 0 18-8 18-17v-42c0-18 12-35 29-41 8-3 15-6 21-9 6-3 12-4 19-4 11 0 23 4 31 13l29 29c7 7 18 7 25 0l37-37c7-7 7-18 0-25l-29-29c-13-13-17-33-9-50 3-7 6-14 9-21 6-17 23-29 41-29h42c9 0 17-8 17-18v-52z" horiz-adv-x="1000" />

<glyph glyph-name="info" unicode="&#xe816;" d="M500 100c28 0 50 23 50 50 0 28-22 50-50 50-27 0-50-22-50-50 0-27 23-50 50-50z m125 375c0 69-56 125-125 125-69 0-125-56-125-125 0-14 11-25 25-25 14 0 25 11 25 25 0 42 34 75 75 75 42 0 75-33 75-75 0-41-33-75-75-75-14 0-25-11-25-25v-100c0-14 11-25 25-25 14 0 25 11 25 25v61c0 10 7 18 16 21 49 17 84 63 84 118z m-125 225c193 0 350-157 350-350 0-193-157-350-350-350-193 0-350 157-350 350 0 193 157 350 350 350z m0 50c-221 0-400-179-400-400 0-221 179-400 400-400 221 0 400 179 400 400 0 221-179 400-400 400z" horiz-adv-x="1000" />

<glyph glyph-name="chat" unicode="&#xe817;" d="M700 750h-250c-110 0-200-89-200-200v-50c0-2 1-4 1-7-87-22-151-100-151-193v-50c0-110 90-200 200-200h152l160-97c4-2 9-3 13-3 4 0 9 1 13 3 8 4 12 12 12 22v103c60 34 100 98 100 172v50c0 3 0 5 0 7 86 22 150 100 150 193v50c0 111-89 200-200 200z m0-500c0-44-19-83-50-111-14-13-31-23-50-30v-90l-134 81h-97-69c-82 0-150 68-150 150v50c0 68 46 126 109 144 14-49 48-91 91-116v-102c0-9 5-18 13-22 4-2 8-3 12-3 5 0 9 1 13 3l161 97h151v-51z m150 250c0-68-46-125-109-143-13-4-26-7-41-7h-165l-135-81v90c-18 7-35 17-50 30-18 17-32 38-40 61-6 16-10 33-10 50v50c0 83 68 150 150 150h250c83 0 150-67 150-150v-50z m-412 0c20 0 37 17 37 38 0 20-17 37-37 37-21 0-38-17-38-37 0-21 17-38 38-38z m137 0c21 0 38 17 38 38 0 20-17 37-38 37-21 0-37-17-37-37 0-21 16-38 37-38z m138 0c20 0 37 17 37 38 0 20-17 37-37 37-21 0-38-17-38-37 0-21 17-38 38-38z" horiz-adv-x="1000" />

<glyph glyph-name="picture" unicode="&#xe818;" d="M850 650h-550c-55 0-100-45-100-100-55 0-100-45-100-100v-350c0-55 45-100 100-100h550c55 0 100 45 100 100 55 0 100 45 100 100v350c0 55-45 100-100 100z m-650-150h550c28 0 50-22 50-50v-264l-157 157c-9 9-24 10-34 2l-232-186-84 84c-10 10-26 10-36 0l-107-107v314c0 28 23 50 50 50z m550-450h-550c-17 0-32 10-41 24l116 116 83-83c9-9 23-10 33-2l233 186 173-173c1-1 3-2 4-3v-15c-1-27-23-50-51-50z m150 150c0-27-22-50-50-50v300c0 55-45 100-100 100h-500c0 28 23 50 50 50h550c28 0 50-22 50-50v-350z m-500 50c55 0 100 45 100 100 0 55-45 100-100 100-55 0-100-45-100-100 0-55 45-100 100-100z m0 150c28 0 50-22 50-50 0-27-22-50-50-50-27 0-50 23-50 50 0 28 23 50 50 50z" horiz-adv-x="1000" />

<glyph glyph-name="caution" unicode="&#xe819;" d="M500 245c17 0 30 14 30 30v300c0 17-13 30-30 30-16 0-30-13-30-30v-300c0-16 14-30 30-30z m0 505c-221 0-400-179-400-400 0-221 179-400 400-400 221 0 400 179 400 400 0 221-179 400-400 400z m0-750c-193 0-350 157-350 350 0 193 157 350 350 350 193 0 350-157 350-350 0-193-157-350-350-350z m0 100c28 0 50 22 50 50 0 28-22 50-50 50-28 0-50-22-50-50 0-28 22-50 50-50z" horiz-adv-x="1000" />

<glyph glyph-name="edit" unicode="&#xe81a;" d="M220 48c-6 0-11 2-15 6-5 4-7 11-6 17l19 154c1 4 3 8 6 11l381 411c7 9 20 9 28 1l132-122c9-8 9-21 2-29l-381-411c-3-3-7-5-11-6l-152-31c-1-1-2-1-3-1v0z m38 165l-15-118 117 24 363 391-102 94-363-391v0z m113-113h0 0z m381 391c-5-1-10 1-14 5l-132 122c-9 8-9 21-1 29l55 60c21 23 58 24 80 4l79-74c11-10 18-24 18-39 1-15-4-30-15-41l-55-60c-4-4-9-6-15-6l0 0z m-104 143l102-94 42 45c3 3 5 7 5 11-1 5-2 8-5 11l-80 74c-6 5-16 5-22-1l-42-46z m199-659h-677c-11 0-20 9-20 20 0 11 9 19 20 19h677c11 0 19-8 19-19 0-11-8-20-19-20z" horiz-adv-x="1000" />

<glyph glyph-name="link" unicode="&#xe81b;" d="M448 547c-11-10-11-27 0-38 10-10 27-10 37 0l125 126c23 23 54 35 87 35 33 0 64-12 88-35 23-24 36-55 36-88 0-33-13-64-36-87l-164-164c-48-48-126-48-174 0-6 6-12 8-19 8-7 0-14-2-19-8-5-5-8-11-8-18 0-7 3-14 8-19 33-33 78-52 125-52 47 0 91 19 124 52l164 164c33 33 52 77 52 124 0 48-19 92-52 125-69 69-180 69-249 0l-125-125h0z m38-39l125 126c23 22 54 35 86 35 33 0 64-13 87-35 23-23 35-54 35-87 0-32-12-63-35-86l-164-163c-48-48-125-48-172 0-6 5-13 8-20 8-8 0-15-3-20-8-5-6-8-13-8-20 0-8 3-15 8-20 34-34 78-52 126-52 47 0 92 18 125 52l164 164c34 33 52 78 52 125 0 48-18 93-52 126-69 69-182 69-251 0l-125-125c-11-11-11-29 0-40 10-11 28-11 39 0h0z m336 164c33-33 52-77 52-125 0-47-19-91-52-124l-164-164c-33-33-77-52-124-52-47 0-92 19-125 52-5 5-8 12-8 19 0 7 3 13 8 18 5 6 12 8 19 8 7 0 13-2 19-8 48-48 126-48 174 0l164 164c23 23 36 54 36 87 0 33-13 64-36 88-24 23-55 35-88 35-33 0-64-12-87-35l-125-126c-10-10-27-10-37 0-11 11-11 28 0 38l125 125c69 69 180 69 249 0h0z m-696-519c0-48 19-92 52-125 33-33 77-52 125-52 47 0 91 19 124 52l106 106c5 5 8 11 8 19 0 7-3 13-8 18-5 5-11 8-19 8-7 0-13-3-18-8l-106-106c-23-23-54-36-87-36-33 0-64 13-88 36-23 24-36 55-36 88 0 33 13 63 36 87l155 154c23 23 54 36 87 36 33 0 64-13 87-36 10-11 27-11 37 0 11 10 11 27 0 37-34 35-79 52-124 52-45 0-91-17-125-52l-154-154c-33-33-52-77-52-124z m177-178c47 0 92 18 125 52l106 106c6 5 8 12 8 20 0 7-2 14-8 19-5 6-12 9-20 9-7 0-14-3-19-9l-106-106c-23-22-54-35-86-35-33 0-64 13-87 35-23 23-35 54-35 87 0 32 12 63 35 86l155 154c22 23 53 35 86 35 32 0 63-12 86-35 11-11 28-11 39 0 11 11 11 28 0 39-69 70-182 70-251 0l-154-154c-34-33-52-78-52-125 0-48 18-93 52-126 33-34 78-52 126-52z m154 508c45 0 90-17 124-52 11-10 11-27 0-37-10-11-27-11-37 0-23 23-54 36-87 36-33 0-64-13-87-36l-155-154c-23-24-36-54-36-87 0-33 13-64 36-88 24-23 55-36 88-36 33 0 64 13 87 36l106 106c5 5 11 8 18 8 8 0 14-3 19-8 5-5 8-11 8-18 0-8-3-14-8-19l-106-106c-33-33-77-52-124-52-48 0-92 19-125 52-33 33-52 77-52 125 0 47 19 91 52 124l154 154c34 35 80 52 125 52h0z" horiz-adv-x="1000" />
</font>
</defs>
</svg>
