<svg width="28" height="28" viewBox="0 0 28 28" fill="none" xmlns="http://www.w3.org/2000/svg">
<path d="M21.84 17.92V12.6933C21.84 9.26986 19.6317 6.35599 16.5741 5.29759C16.5872 5.15386 16.6133 5.01012 16.6133 4.85332C16.6133 3.41599 15.4373 2.23999 14 2.23999C12.5626 2.23999 11.3866 3.41599 11.3866 4.85332C11.3866 5.01012 11.4128 5.15386 11.4258 5.29759C8.36823 6.35599 6.15996 9.26986 6.15996 12.6933V17.92C4.72263 17.92 3.54663 19.096 3.54663 20.5333C3.54663 21.9707 4.72263 23.1467 6.15996 23.1467H10.3152C10.8509 24.6624 12.2882 25.76 14 25.76C15.7117 25.76 17.136 24.6624 17.6848 23.1467H21.84C23.2773 23.1467 24.4533 21.9707 24.4533 20.5333C24.4533 19.096 23.2773 17.92 21.84 17.92ZM14 3.54666C14.7186 3.54666 15.3066 4.13466 15.3066 4.85332C15.3066 4.89252 15.2936 4.93172 15.2805 4.97092C14.8624 4.89252 14.4442 4.85332 14 4.85332C13.5557 4.85332 13.1376 4.89252 12.7194 4.97092C12.7194 4.93172 12.6933 4.89252 12.6933 4.85332C12.6933 4.13466 13.2813 3.54666 14 3.54666ZM7.46663 12.6933C7.46663 9.79252 9.37435 7.36212 11.9877 6.51279C12.628 6.30372 13.2944 6.15999 14 6.15999C14.7056 6.15999 15.372 6.30372 16.0122 6.51279C18.6256 7.36212 20.5333 9.80559 20.5333 12.6933V17.92H7.46663V12.6933ZM14 24.4533C13.033 24.4533 12.2098 23.9176 11.7525 23.1467H16.2474C15.7901 23.9176 14.9669 24.4533 14 24.4533ZM21.84 21.84H18.521H16.2474H11.7525H9.47891H6.15996C5.4413 21.84 4.8533 21.252 4.8533 20.5333C4.8533 19.8147 5.4413 19.2267 6.15996 19.2267H21.84C22.5586 19.2267 23.1466 19.8147 23.1466 20.5333C23.1466 21.252 22.5586 21.84 21.84 21.84Z" fill="#656565"/>
</svg>
