<svg width="26" height="26" viewBox="0 0 26 26" fill="none" xmlns="http://www.w3.org/2000/svg">
<path d="M12.9997 15.73C13.4287 15.73 13.7797 15.379 13.7797 14.95V7.14999C13.7797 6.72099 13.4287 6.37 12.9997 6.37C12.5707 6.37 12.2197 6.72099 12.2197 7.14999V14.95C12.2197 15.379 12.5707 15.73 12.9997 15.73Z" fill="#EB5757"/>
<path d="M12.9996 2.59998C7.25361 2.59998 2.59961 7.25398 2.59961 13C2.59961 18.746 7.25361 23.4 12.9996 23.4C18.7456 23.4 23.3996 18.746 23.3996 13C23.3996 7.25398 18.7456 2.59998 12.9996 2.59998ZM12.9996 22.1C7.98161 22.1 3.89961 18.018 3.89961 13C3.89961 7.98198 7.98161 3.89998 12.9996 3.89998C18.0176 3.89998 22.0996 7.98198 22.0996 13C22.0996 18.018 18.0176 22.1 12.9996 22.1Z" fill="#EB5757"/>
<path d="M12.9992 19.5C13.7172 19.5 14.2992 18.918 14.2992 18.2C14.2992 17.4821 13.7172 16.9 12.9992 16.9C12.2812 16.9 11.6992 17.4821 11.6992 18.2C11.6992 18.918 12.2812 19.5 12.9992 19.5Z" fill="#EB5757"/>
</svg>
