<svg width="28" height="28" viewBox="0 0 28 28" fill="none" xmlns="http://www.w3.org/2000/svg">
<path d="M19.6 2.80005H12.6C9.50605 2.80005 7.00005 5.30605 7.00005 8.40005V9.80005C7.00005 9.87005 7.01404 9.92605 7.01404 9.99605C4.59204 10.612 2.80005 12.796 2.80005 15.4V16.8C2.80005 19.8941 5.30605 22.4001 8.40005 22.4001H12.642L17.1361 25.102C17.2481 25.172 17.374 25.2001 17.5 25.2001C17.612 25.2001 17.738 25.1721 17.85 25.1161C18.074 24.9901 18.2 24.7661 18.2 24.5001V21.63C19.8661 20.664 21.0001 18.872 21.0001 16.8V15.4C21.0001 15.33 20.9861 15.2741 20.9861 15.2041C23.4081 14.5881 25.2001 12.404 25.2001 9.80005V8.40005C25.2001 5.30605 22.6941 2.80005 19.6 2.80005ZM19.6 16.8C19.6 18.032 19.054 19.1381 18.2 19.9081C17.794 20.2721 17.318 20.5521 16.8 20.7481V23.268L13.034 21.0001H10.318H8.40005C6.09005 21.0001 4.20005 19.11 4.20005 16.8V15.4C4.20005 13.496 5.48805 11.8861 7.23805 11.3821C7.64405 12.7541 8.58205 13.9161 9.80005 14.6161V17.4861C9.80005 17.7381 9.94005 17.976 10.15 18.102C10.262 18.158 10.374 18.1861 10.5 18.1861C10.626 18.1861 10.752 18.158 10.864 18.088L15.3581 15.3861H19.6V16.8ZM23.8001 9.80005C23.8001 11.718 22.4981 13.314 20.7481 13.818C20.3841 13.916 20.0061 14 19.6 14H14.9661L11.2 16.268V13.7481C10.682 13.5661 10.206 13.2721 9.80005 12.9081C9.29605 12.4461 8.90405 11.858 8.66605 11.2C8.51205 10.766 8.40005 10.29 8.40005 9.80005V8.40005C8.40005 6.09005 10.29 4.20005 12.6 4.20005H19.6C21.9101 4.20005 23.8001 6.09005 23.8001 8.40005V9.80005Z" fill="#656565"/>
<path d="M12.25 9.80007C12.8299 9.80007 13.3 9.32997 13.3 8.75007C13.3 8.17017 12.8299 7.70007 12.25 7.70007C11.6701 7.70007 11.2 8.17017 11.2 8.75007C11.2 9.32997 11.6701 9.80007 12.25 9.80007Z" fill="#656565"/>
<path d="M16.1 9.80007C16.6799 9.80007 17.15 9.32997 17.15 8.75007C17.15 8.17017 16.6799 7.70007 16.1 7.70007C15.5201 7.70007 15.05 8.17017 15.05 8.75007C15.05 9.32997 15.5201 9.80007 16.1 9.80007Z" fill="#656565"/>
<path d="M19.9501 9.80007C20.53 9.80007 21.0001 9.32997 21.0001 8.75007C21.0001 8.17017 20.53 7.70007 19.9501 7.70007C19.3702 7.70007 18.9001 8.17017 18.9001 8.75007C18.9001 9.32997 19.3702 9.80007 19.9501 9.80007Z" fill="#656565"/>
</svg>
