<svg width="20" height="20" viewBox="0 0 20 20" fill="none" xmlns="http://www.w3.org/2000/svg">
<path d="M15.1414 3.8679H12.3395C12.3395 2.84056 11.499 2 10.4716 2H9.53766C8.51031 2 7.66975 2.84056 7.66975 3.8679H4.8679C3.84056 3.8679 3 4.70846 3 5.7358C3 6.44561 3.4016 7.06202 3.98999 7.37956L4.66243 15.4489C4.78385 16.3081 5.5777 16.9525 6.51166 16.9525H13.4883C14.4316 16.9525 15.2254 16.3081 15.3375 15.4489L16.0099 7.37956C16.5983 7.06202 16.9999 6.45495 16.9999 5.7358C17.0093 4.70846 16.1687 3.8679 15.1414 3.8679ZM9.53766 2.93395H10.4716C10.9853 2.93395 11.4056 3.35423 11.4056 3.8679H8.6037C8.6037 3.35423 9.02398 2.93395 9.53766 2.93395ZM14.4222 15.3368C14.3568 15.7197 13.9646 16.0093 13.4976 16.0093H6.52099C6.05402 16.0093 5.66176 15.7197 5.59638 15.3368L4.95196 7.6037H15.0666L14.4222 15.3368ZM15.1414 6.66975H4.8679C4.35423 6.66975 3.93395 6.24948 3.93395 5.7358C3.93395 5.22213 4.35423 4.80185 4.8679 4.80185H15.1414C15.655 4.80185 16.0753 5.22213 16.0753 5.7358C16.0753 6.24948 15.655 6.66975 15.1414 6.66975Z" fill="#2D2D2D"/>
<path d="M10.0051 14.1413C10.2666 14.1413 10.472 13.9358 10.472 13.6743V9.00457C10.472 8.74307 10.2666 8.5376 10.0051 8.5376C9.74356 8.5376 9.53809 8.74307 9.53809 9.00457V13.6743C9.53809 13.9358 9.74356 14.1413 10.0051 14.1413Z" fill="#2D2D2D"/>
<path d="M7.2033 14.1413C7.46481 14.1413 7.67028 13.9358 7.67028 13.6743V9.00457C7.67028 8.74307 7.46481 8.5376 7.2033 8.5376C6.9418 8.5376 6.73633 8.74307 6.73633 9.00457V13.6743C6.73633 13.9358 6.9418 14.1413 7.2033 14.1413Z" fill="#2D2D2D"/>
<path d="M12.8068 14.1413C13.0683 14.1413 13.2738 13.9358 13.2738 13.6743V9.00457C13.2738 8.74307 13.0683 8.5376 12.8068 8.5376C12.5453 8.5376 12.3398 8.74307 12.3398 9.00457V13.6743C12.3398 13.9358 12.5453 14.1413 12.8068 14.1413Z" fill="#2D2D2D"/>
</svg>
