<svg width="40" height="40" viewBox="0 0 40 40" fill="none" xmlns="http://www.w3.org/2000/svg">
<g clip-path="url(#clip0_731_38754)">
<path d="M8.78269 32.0714C8.56768 32.0798 8.35611 32.0022 8.19559 31.854C8.00169 31.6743 7.90646 31.4117 7.94033 31.149L8.7336 24.9987C8.75569 24.8299 8.82932 24.6723 8.94517 24.5476L24.1798 8.11275C24.4871 7.78141 25.0045 7.76177 25.3359 8.06907L30.6153 12.9632C30.9467 13.2705 30.9663 13.7879 30.659 14.1192L15.4244 30.5536C15.3085 30.6783 15.1568 30.7642 14.9904 30.7986L8.91768 32.0547C8.87301 32.0641 8.82736 32.0695 8.78269 32.0709V32.0714ZM10.3226 25.4675L9.70997 30.2198L14.4024 29.2493L28.9036 13.6067L24.8239 9.82496L10.3226 25.4675V25.4675ZM14.8245 29.9974H14.8324H14.8245Z" fill="#2D2D2D"/>
<path d="M30.0904 14.3803C29.8813 14.3881 29.6692 14.3165 29.5033 14.1628L24.2238 9.26869C23.8925 8.96139 23.8729 8.444 24.1801 8.11265L26.4142 5.7024C27.2359 4.81635 28.7243 4.76039 29.6098 5.58115L32.7726 8.51371C33.2154 8.92409 33.4721 9.48271 33.4952 10.086C33.5183 10.6893 33.3042 11.2656 32.8939 11.7089L30.6598 14.1191C30.5062 14.2851 30.3 14.3724 30.0909 14.3808L30.0904 14.3803ZM25.936 8.62465L30.0158 12.4064L31.6936 10.596C31.807 10.4733 31.8659 10.3143 31.8596 10.1474C31.8532 9.98047 31.7825 9.82633 31.6603 9.71343L28.497 6.78088C28.252 6.55409 27.8417 6.5698 27.6139 6.81426L25.936 8.62465Z" fill="#2D2D2D"/>
<path d="M33.8725 35H6.78542C6.35147 35 6 34.6486 6 34.2146C6 33.7807 6.35147 33.4292 6.78542 33.4292H33.8725C34.3064 33.4292 34.6579 33.7807 34.6579 34.2146C34.6579 34.6486 34.3064 35 33.8725 35Z" fill="#2D2D2D"/>
</g>
<defs>
<clipPath id="clip0_731_38754">
<rect width="28.6579" height="30" fill="white" transform="translate(6 5)"/>
</clipPath>
</defs>
</svg>
