<svg width="26" height="26" viewBox="0 0 26 26" fill="none" xmlns="http://www.w3.org/2000/svg">
<path d="M13 7.27273C18.2678 7.27273 22.2889 11.8418 22.7533 13C22.2889 14.1582 18.2678 18.7273 13 18.7273C7.73222 18.7273 3.7111 14.1582 3.24665 13C3.7111 11.8418 7.73222 7.27273 13 7.27273ZM13 6C6.92556 6 2 11.6 2 13C2 14.4 6.92556 20 13 20C19.0744 20 24 14.4 24 13C24 11.6 19.0744 6 13 6Z" fill="white"/>
<path d="M13.0004 9.81814C14.6871 9.81814 16.056 11.2436 16.056 13C16.056 14.7563 14.6871 16.1818 13.0004 16.1818C11.3138 16.1818 9.94488 14.7563 9.94488 13C9.94488 11.2436 11.3138 9.81814 13.0004 9.81814ZM13.0004 8.54541C10.6415 8.54541 8.72266 10.5436 8.72266 13C8.72266 15.4563 10.6415 17.4545 13.0004 17.4545C15.3593 17.4545 17.2782 15.4563 17.2782 13C17.2782 10.5436 15.3593 8.54541 13.0004 8.54541Z" fill="white"/>
</svg>
