<svg width="28" height="28" viewBox="0 0 28 28" fill="none" xmlns="http://www.w3.org/2000/svg">
<line x1="13.8167" y1="21.4667" x2="13.8167" y2="24.2667" stroke="#656565" stroke-width="1.5"/>
<line x1="10.0833" y1="24.4501" x2="16.9833" y2="24.4501" stroke="#656565" stroke-width="1.5" stroke-linecap="round"/>
<path d="M14.1167 9.56667C14.6965 9.56667 15.1667 9.09657 15.1667 8.51667C15.1667 7.93678 14.6965 7.46667 14.1167 7.46667C13.5368 7.46667 13.0667 7.93678 13.0667 8.51667C13.0667 9.09657 13.5368 9.56667 14.1167 9.56667Z" fill="#656565"/>
<path d="M17.9667 9.56667C18.5466 9.56667 19.0167 9.09657 19.0167 8.51667C19.0167 7.93678 18.5466 7.46667 17.9667 7.46667C17.3868 7.46667 16.9167 7.93678 16.9167 8.51667C16.9167 9.09657 17.3868 9.56667 17.9667 9.56667Z" fill="#656565"/>
<path d="M21.8166 9.56667C22.3965 9.56667 22.8666 9.09657 22.8666 8.51667C22.8666 7.93678 22.3965 7.46667 21.8166 7.46667C21.2367 7.46667 20.7666 7.93678 20.7666 8.51667C20.7666 9.09657 21.2367 9.56667 21.8166 9.56667Z" fill="#656565"/>
<path d="M12.8701 13.6393H13.6201V13.1231L13.1379 12.9388L12.8701 13.6393ZM13.7056 16.0442L14.2087 16.6003L14.2087 16.6003L13.7056 16.0442ZM15.9648 14V13.25H15.6759L15.4616 13.4439L15.9648 14ZM10.0833 8.30005C10.0833 5.67669 12.2099 3.55005 14.8333 3.55005V2.05005C11.3815 2.05005 8.58325 4.84827 8.58325 8.30005H10.0833ZM10.0833 8.50005V8.30005H8.58325V8.50005H10.0833ZM13.1379 12.9388C11.3506 12.2556 10.0833 10.5249 10.0833 8.50005H8.58325C8.58325 11.1671 10.2534 13.4421 12.6023 14.3399L13.1379 12.9388ZM12.1201 13.6393V15.6734H13.6201V13.6393H12.1201ZM12.1201 15.6734C12.1201 16.7572 13.4051 17.3274 14.2087 16.6003L13.2024 15.488C13.3631 15.3426 13.6201 15.4566 13.6201 15.6734H12.1201ZM14.2087 16.6003L16.468 14.5562L15.4616 13.4439L13.2024 15.488L14.2087 16.6003ZM20.6333 13.25H15.9648V14.75H20.6333V13.25ZM25.3833 8.50005C25.3833 11.1234 23.2566 13.25 20.6333 13.25V14.75C24.085 14.75 26.8833 11.9518 26.8833 8.50005H25.3833ZM25.3833 8.30005V8.50005H26.8833V8.30005H25.3833ZM20.6332 3.55005C23.2566 3.55005 25.3833 5.6767 25.3833 8.30005H26.8833C26.8833 4.84827 24.085 2.05005 20.6332 2.05005V3.55005ZM14.8333 3.55005H20.6332V2.05005H14.8333V3.55005Z" fill="#656565"/>
<path fill-rule="evenodd" clip-rule="evenodd" d="M22.7667 13.5709V16.4666C22.7667 18.3996 21.1997 19.9666 19.2667 19.9666H7.80005C5.86705 19.9666 4.30005 18.3996 4.30005 16.4666V10.6C4.30005 8.66698 5.86705 7.09998 7.80005 7.09998H9.46467C9.58335 6.56667 9.77947 6.06253 10.0406 5.59998H7.80005C5.03863 5.59998 2.80005 7.83855 2.80005 10.6V16.4666C2.80005 19.2281 5.03862 21.4666 7.80005 21.4666H13.0671V21.4666H14.5671V21.4666H19.2667C22.0281 21.4666 24.2667 19.2281 24.2667 16.4666V12.6291C23.8241 13.0189 23.3183 13.3386 22.7667 13.5709Z" fill="#656565"/>
</svg>
