<svg width="28" height="28" viewBox="0 0 28 28" fill="none" xmlns="http://www.w3.org/2000/svg">
<path d="M18.9 15.4C18.508 15.4 18.2 15.708 18.2 16.1V19.866L17.486 20.23L15.932 21L15.778 21.07C15.428 21.238 15.288 21.658 15.47 22.008C15.596 22.246 15.834 22.4 16.1 22.4C16.212 22.4 16.31 22.372 16.408 22.33L19.208 20.93C19.236 20.916 19.264 20.888 19.292 20.874C19.334 20.846 19.376 20.818 19.418 20.776C19.446 20.748 19.46 20.706 19.488 20.664C19.516 20.622 19.544 20.594 19.558 20.538C19.572 20.496 19.586 20.44 19.586 20.398C19.586 20.37 19.6 20.328 19.6 20.3V16.1C19.6 15.708 19.292 15.4 18.9 15.4Z" fill="#656565"/>
<path d="M21.0001 12.894V12.334C21.0001 11.592 20.7061 10.8781 20.1741 10.3461L13.4121 3.61203C12.8941 3.09403 12.1941 2.80005 11.4661 2.80005H11.2H5.60005C4.06005 2.80005 2.80005 4.06005 2.80005 5.60005V22.4001C2.80005 23.9401 4.06005 25.2001 5.60005 25.2001H12.964C14.378 26.9081 16.506 28.0001 18.9 28.0001C23.1561 28.0001 26.6001 24.5561 26.6001 20.3001C26.6001 16.772 24.2341 13.818 21.0001 12.894ZM12.6 4.78807L19.0401 11.2H14C13.23 11.2 12.6 10.57 12.6 9.80005V4.78807ZM7.00005 21.0001H11.242C11.326 22.0081 11.6201 22.9461 12.0541 23.8001H5.60005C4.83005 23.8001 4.20005 23.1701 4.20005 22.4001V5.60005C4.20005 4.83005 4.83005 4.20005 5.60005 4.20005H11.2V9.80005C11.2 11.34 12.46 12.6 14 12.6H18.9H19.6V12.642C19.376 12.628 19.138 12.6 18.9 12.6C16.506 12.6 14.378 13.692 12.964 15.4H7.00005C6.60805 15.4 6.30005 15.708 6.30005 16.1C6.30005 16.492 6.60805 16.8 7.00005 16.8H12.0541C11.6201 17.654 11.326 18.592 11.242 19.6H7.00005C6.60805 19.6 6.30005 19.908 6.30005 20.3001C6.30005 20.6921 6.60805 21.0001 7.00005 21.0001ZM18.9 26.6001C17.416 26.6001 16.0721 26.0681 14.9941 25.2001C14.4901 24.7941 14.0281 24.3321 13.6781 23.8001C13.1321 22.9881 12.796 22.0221 12.684 21.0001C12.656 20.7621 12.614 20.5381 12.614 20.3001C12.614 20.0621 12.656 19.838 12.684 19.6C12.796 18.578 13.1321 17.612 13.6781 16.8C14.0421 16.268 14.4901 15.806 14.9941 15.4C16.0721 14.532 17.416 14 18.9 14C19.138 14 19.362 14.042 19.6 14.07C20.09 14.126 20.5521 14.224 21.0001 14.392C23.4361 15.26 25.2001 17.57 25.2001 20.3001C25.2001 23.7721 22.3721 26.6001 18.9 26.6001Z" fill="#656565"/>
<path d="M7.00005 12.6001H9.10005C9.49205 12.6001 9.80005 12.2921 9.80005 11.9001C9.80005 11.5081 9.49205 11.2001 9.10005 11.2001H7.00005C6.60805 11.2001 6.30005 11.5081 6.30005 11.9001C6.30005 12.2921 6.60805 12.6001 7.00005 12.6001Z" fill="#656565"/>
</svg>
