<svg width="24" height="24" viewBox="0 0 24 24" fill="none" xmlns="http://www.w3.org/2000/svg">
<rect width="24" height="24" rx="8" fill="white"/>
<path d="M17.9448 4.35669L12 10.3015L6.0552 4.35669C5.57962 3.8811 4.83227 3.8811 4.35669 4.35669C3.8811 4.83227 3.8811 5.57962 4.35669 6.0552L10.3015 12L4.35669 17.9448C3.8811 18.4204 3.8811 19.1677 4.35669 19.6433C4.83227 20.1189 5.57962 20.1189 6.0552 19.6433L12 13.6985L17.9448 19.6433C18.4204 20.1189 19.1677 20.1189 19.6433 19.6433C20.1189 19.1677 20.1189 18.4204 19.6433 17.9448L13.6985 12L19.6433 6.0552C20.1189 5.57962 20.1189 4.83227 19.6433 4.35669C19.1677 3.8811 18.4204 3.88111 17.9448 4.35669Z" fill="#B1B1B1"/>
</svg>
