<svg width="24" height="26" viewBox="0 0 24 26" fill="none" xmlns="http://www.w3.org/2000/svg">
<path d="M9.85949 5.02594L9.85956 5.02592C10.5423 4.80298 11.2509 4.65039 12 4.65039C12.7492 4.65039 13.4578 4.80298 14.1405 5.02592L14.1406 5.02594C16.921 5.92956 18.9501 8.52906 18.9501 11.6004V17.1504H5.05005V11.6004C5.05005 8.51512 7.07906 5.92958 9.85949 5.02594ZM20.4501 17.1508V11.6004C20.4501 7.92431 18.0878 4.79358 14.8117 3.64214C14.8152 3.60796 14.8194 3.5731 14.8237 3.53761C14.8365 3.43045 14.85 3.31753 14.85 3.20039C14.85 1.63278 13.5677 0.350391 12 0.350391C10.4324 0.350391 9.15005 1.63278 9.15005 3.20039C9.15005 3.31753 9.16358 3.43045 9.17642 3.53761C9.18068 3.5731 9.18485 3.60796 9.18844 3.64214C5.9123 4.79358 3.55005 7.92431 3.55005 11.6004V17.1508C2.00526 17.1777 0.750049 18.4495 0.750049 20.0004C0.750049 21.568 2.03243 22.8504 3.60005 22.8504H8.01684C8.60678 24.4762 10.1565 25.6504 12 25.6504C13.844 25.6504 15.3797 24.4758 15.983 22.8504H20.4001C21.9677 22.8504 23.25 21.568 23.25 20.0004C23.25 18.4495 21.9948 17.1777 20.4501 17.1508ZM12 1.85039C12.7424 1.85039 13.35 2.458 13.35 3.20039C13.35 3.22185 13.3453 3.24403 13.3379 3.26924C12.9012 3.19 12.4637 3.15039 12 3.15039C11.5385 3.15039 11.1028 3.18964 10.6681 3.26817C10.6661 3.26159 10.6641 3.25552 10.6623 3.25012L10.6615 3.24759C10.6539 3.22491 10.6501 3.21182 10.6501 3.20039C10.6501 2.458 11.2577 1.85039 12 1.85039ZM12 24.1504C11.0152 24.1504 10.1713 23.6219 9.68141 22.8504H14.3187C13.8288 23.6219 12.9849 24.1504 12 24.1504ZM20.4001 21.3504H16.844H14.4081H9.59205H7.15606H3.60005C2.85766 21.3504 2.25005 20.7428 2.25005 20.0004C2.25005 19.258 2.85766 18.6504 3.60005 18.6504H20.4001C21.1424 18.6504 21.7501 19.258 21.7501 20.0004C21.7501 20.7428 21.1424 21.3504 20.4001 21.3504Z" fill="#656565" stroke="#656565" stroke-width="0.1"/>
</svg>
