<svg width="24" height="24" viewBox="0 0 24 24" fill="none" xmlns="http://www.w3.org/2000/svg">
<path d="M3.52802 12.528H17.748L11.772 18.48C11.556 18.696 11.436 18.972 11.436 19.272C11.436 19.572 11.556 19.86 11.772 20.064C11.988 20.268 12.264 20.4 12.564 20.4C12.864 20.4 13.152 20.28 13.368 20.076L21.276 12.204L21.336 12.144L21.396 12.036C21.408 12.024 21.48 11.94 21.516 11.832C21.636 11.556 21.636 11.244 21.516 10.968C21.468 10.86 21.408 10.788 21.372 10.74C21.372 10.74 21.336 10.668 21.264 10.608L13.356 2.73602C13.152 2.52002 12.864 2.40002 12.564 2.40002C12.264 2.40002 11.976 2.52002 11.76 2.72402C11.544 2.94002 11.424 3.21602 11.424 3.51602C11.424 3.81602 11.544 4.10402 11.76 4.30802L17.736 10.26H3.52802C2.90402 10.26 2.40002 10.764 2.40002 11.388C2.40002 12.012 2.90402 12.528 3.52802 12.528Z" fill="white"/>
</svg>
