<svg width="20" height="20" viewBox="0 0 20 20" fill="none" xmlns="http://www.w3.org/2000/svg">
<path d="M18.82 17.98L13.696 12.856C14.752 11.596 15.4 9.976 15.4 8.2C15.4 4.228 12.172 1 8.2 1C4.228 1 1 4.228 1 8.2C1 12.172 4.228 15.4 8.2 15.4C9.976 15.4 11.596 14.752 12.844 13.696L17.968 18.82C18.088 18.94 18.244 19 18.388 19C18.532 19 18.7 18.94 18.808 18.82C19.06 18.592 19.06 18.208 18.82 17.98ZM8.2 14.2C4.888 14.2 2.2 11.512 2.2 8.2C2.2 4.888 4.888 2.2 8.2 2.2C11.512 2.2 14.2 4.888 14.2 8.2C14.2 9.64 13.672 10.936 12.82 11.98C12.568 12.292 12.28 12.568 11.968 12.832C10.936 13.672 9.64 14.2 8.2 14.2Z" fill="white" stroke="white"/>
</svg>
