<svg width="30" height="30" viewBox="0 0 30 30" fill="none" xmlns="http://www.w3.org/2000/svg">
<path d="M24 13.5C24 9.57 21.465 6.225 17.955 5.01C17.97 4.845 18 4.68 18 4.5C18 2.85 16.65 1.5 15 1.5C13.35 1.5 12 2.85 12 4.5C12 4.68 12.03 4.845 12.045 5.01C8.535 6.225 6 9.57 6 13.5V18H24V13.5Z" fill="#656565"/>
<path d="M11.6851 27C12.5101 27.915 13.68 28.5 15 28.5C16.32 28.5 17.505 27.915 18.315 27H11.6851Z" fill="#656565"/>
<path d="M24 19.5H6C4.35 19.5 3 20.85 3 22.5C3 24.15 4.35 25.5 6 25.5H10.77H19.215H24C25.65 25.5 27 24.15 27 22.5C27 20.85 25.65 19.5 24 19.5Z" fill="#656565"/>
</svg>
