<svg width="24" height="24" viewBox="0 0 24 24" fill="none" xmlns="http://www.w3.org/2000/svg">
<path d="M20.472 11.472L6.25197 11.472L12.228 5.51997C12.444 5.30397 12.564 5.02797 12.564 4.72797C12.564 4.42797 12.444 4.13997 12.228 3.93597C12.012 3.73197 11.736 3.59998 11.436 3.59998C11.136 3.59998 10.848 3.71998 10.632 3.92398L2.72398 11.796L2.66398 11.856L2.60397 11.964C2.59197 11.976 2.51997 12.06 2.48397 12.168C2.36397 12.444 2.36397 12.756 2.48397 13.032C2.53197 13.14 2.59197 13.212 2.62797 13.26C2.62797 13.26 2.66397 13.332 2.73597 13.392L10.644 21.264C10.848 21.48 11.136 21.6 11.436 21.6C11.736 21.6 12.024 21.48 12.24 21.276C12.456 21.06 12.576 20.784 12.576 20.484C12.576 20.184 12.456 19.896 12.24 19.692L6.26398 13.74L20.472 13.74C21.096 13.74 21.6 13.236 21.6 12.612C21.6 11.988 21.096 11.472 20.472 11.472Z" fill="white"/>
</svg>
