<svg width="30" height="30" viewBox="0 0 30 30" fill="none" xmlns="http://www.w3.org/2000/svg">
<path d="M15 22.5C15.825 22.5 16.5 21.825 16.5 21C16.5 20.175 15.825 19.5 15 19.5C14.175 19.5 13.5 20.175 13.5 21C13.5 21.825 14.175 22.5 15 22.5Z" fill="#2D2D2D"/>
<path d="M18.75 11.25C18.75 9.18 17.07 7.5 15 7.5C12.93 7.5 11.25 9.18 11.25 11.25C11.25 11.67 11.58 12 12 12C12.42 12 12.75 11.67 12.75 11.25C12.75 10.005 13.755 9 15 9C16.245 9 17.25 10.005 17.25 11.25C17.25 12.495 16.245 13.5 15 13.5C14.58 13.5 14.25 13.83 14.25 14.25V17.25C14.25 17.67 14.58 18 15 18C15.42 18 15.75 17.67 15.75 17.25V15.42C15.75 15.135 15.96 14.895 16.23 14.805C17.7 14.295 18.75 12.9 18.75 11.25Z" fill="#2D2D2D"/>
<path d="M15 4.5C20.79 4.5 25.5 9.21 25.5 15C25.5 20.79 20.79 25.5 15 25.5C9.21 25.5 4.5 20.79 4.5 15C4.5 9.21 9.21 4.5 15 4.5ZM15 3C8.37 3 3 8.37 3 15C3 21.63 8.37 27 15 27C21.63 27 27 21.63 27 15C27 8.37 21.63 3 15 3Z" fill="#2D2D2D"/>
</svg>
