<svg width="40" height="40" viewBox="0 0 40 40" fill="none" xmlns="http://www.w3.org/2000/svg">
<g clip-path="url(#clip0_731_38725)">
<path d="M17.9017 12.1266C17.4881 12.5402 17.4881 13.2129 17.9017 13.6265C18.3153 14.04 18.988 14.04 19.4015 13.6265L24.4089 8.61913C25.3361 7.69251 26.5744 7.18235 27.8955 7.18235C29.2166 7.18235 30.4562 7.69309 31.3828 8.61971C32.3094 9.54632 32.8202 10.7853 32.8202 12.107C32.8202 13.4286 32.3094 14.667 31.3828 15.5936L24.8357 22.1424C22.9125 24.0645 19.7839 24.0645 17.8606 22.1424C17.6541 21.9359 17.3823 21.8324 17.111 21.8324C16.8397 21.8324 16.5679 21.9359 16.3614 22.1424C16.1549 22.3489 16.0508 22.6092 16.0508 22.8926C16.0508 23.1761 16.1613 23.4421 16.3614 23.6423C17.6912 24.972 19.4623 25.7043 21.3485 25.7043C23.2347 25.7043 25.0058 24.972 26.3356 23.6423L32.8838 17.094C34.2112 15.7672 34.9423 13.9961 34.9423 12.107C34.9423 10.2179 34.2112 8.44734 32.8838 7.1193C30.1346 4.3701 25.6605 4.37068 22.9102 7.1193L17.9029 12.1266H17.9017Z" fill="#2D2D2D"/>
<path d="M19.4428 13.6675L24.4501 8.6602C25.3664 7.74457 26.5903 7.2402 27.8958 7.2402C29.2012 7.2402 30.4263 7.74457 31.342 8.66078C32.2582 9.57699 32.7625 10.8009 32.7625 12.107C32.7625 13.413 32.2582 14.6369 31.342 15.5526L24.7949 22.1014C22.8942 24.0009 19.802 24.0009 17.9019 22.1014C17.6908 21.8903 17.4097 21.774 17.1112 21.774C16.8128 21.774 16.5317 21.8903 16.3205 22.1014C16.1094 22.3125 15.9932 22.5936 15.9932 22.8921C15.9932 23.1905 16.1094 23.4716 16.3205 23.6828C17.6613 25.0235 19.4469 25.7616 21.3481 25.7616C23.2494 25.7616 25.0349 25.0229 26.3757 23.6828L32.9239 17.1345C34.2624 15.7967 34.9998 14.0111 34.9998 12.107C34.9998 10.2028 34.2624 8.41727 32.9239 7.07882C30.1522 4.30706 25.6417 4.30706 22.8682 7.07882L17.8609 12.0861C17.4247 12.5223 17.4247 13.2314 17.8609 13.6675C18.297 14.1037 19.0061 14.1037 19.4422 13.6675H19.4428ZM32.8834 7.11931C34.2109 8.44677 34.942 10.2184 34.942 12.107C34.942 13.9955 34.2109 15.7666 32.8834 17.0941L26.3352 23.6423C25.0054 24.972 23.2343 25.7043 21.3481 25.7043C19.4619 25.7043 17.6908 24.972 16.361 23.6423C16.1609 23.4421 16.0504 23.1761 16.0504 22.8926C16.0504 22.6092 16.1609 22.3432 16.361 22.1424C16.5612 21.9417 16.8394 21.8324 17.1107 21.8324C17.3819 21.8324 17.6538 21.936 17.8603 22.1424C19.7835 24.0645 22.9121 24.0645 24.8354 22.1424L31.3824 15.5936C32.3091 14.667 32.8198 13.4286 32.8198 12.107C32.8198 10.7853 32.3091 9.54633 31.3824 8.61971C30.4558 7.69309 29.2169 7.18235 27.8952 7.18235C26.5735 7.18235 25.3357 7.69252 24.4085 8.61913L19.4012 13.6265C18.9876 14.04 18.3149 14.04 17.9014 13.6265C17.4878 13.2129 17.4878 12.5402 17.9014 12.1266L22.9087 7.11931C25.659 4.37069 30.1336 4.37011 32.8823 7.11931H32.8834Z" fill="#2D2D2D"/>
<path d="M5.05762 27.9C5.05762 29.7885 5.78873 31.559 7.11619 32.8865C8.44307 34.2139 10.2142 34.945 12.1027 34.945C13.9912 34.945 15.7623 34.2139 17.0898 32.8865L21.3267 28.6496C21.5268 28.4495 21.6373 28.1828 21.6373 27.9C21.6373 27.6171 21.5268 27.3505 21.3267 27.1503C21.1265 26.9502 20.8599 26.8397 20.577 26.8397C20.2942 26.8397 20.0275 26.9502 19.8274 27.1503L15.5905 31.3872C14.6639 32.3138 13.4249 32.8246 12.1033 32.8246C10.7816 32.8246 9.54264 32.3138 8.61602 31.3872C7.68593 30.4571 7.17403 29.2187 7.17403 27.9C7.17403 26.5812 7.68593 25.3428 8.61602 24.4127L14.7796 18.2491C15.7068 17.3225 16.9452 16.8123 18.2668 16.8123C19.5885 16.8123 20.8263 17.3225 21.7535 18.2491C22.1671 18.6627 22.8398 18.6627 23.2534 18.2491C23.6669 17.8356 23.6669 17.1629 23.2534 16.7493C21.879 15.375 20.0727 14.6873 18.2668 14.6873C16.461 14.6873 14.6547 15.3744 13.2798 16.7493L7.11619 22.9129C5.78873 24.2403 5.05762 26.0114 5.05762 27.9Z" fill="#2D2D2D"/>
<path d="M12.1029 35.0029C14.0071 35.0029 15.7926 34.2654 17.1305 32.9269L21.3674 28.6901C21.5785 28.4789 21.6948 28.1978 21.6948 27.8994C21.6948 27.6009 21.5785 27.3198 21.3674 27.1087C21.1562 26.8975 20.8751 26.7813 20.5767 26.7813C20.2782 26.7813 19.9977 26.8975 19.786 27.1087L15.5491 31.3455C14.6329 32.2618 13.409 32.7661 12.1029 32.7661C10.7969 32.7661 9.57236 32.2618 8.65673 31.3455C7.73763 30.4264 7.23152 29.2025 7.23152 27.8994C7.23152 26.5962 7.73763 25.3723 8.65673 24.4532L14.8203 18.2896C15.7365 17.374 16.9604 16.8696 18.2665 16.8696C19.5726 16.8696 20.7959 17.374 21.7121 18.2896C22.1482 18.7257 22.8574 18.7257 23.2935 18.2896C23.7296 17.8535 23.7296 17.1443 23.2935 16.7082C20.5217 13.9365 16.0107 13.9365 13.2378 16.7082L7.07419 22.8718C5.7369 24.2102 5 25.9958 5 27.8999C5 29.8041 5.73748 31.5891 7.07593 32.9269C8.4138 34.2654 10.1994 35.0029 12.1029 35.0029ZM18.2665 14.6872C20.0723 14.6872 21.8787 15.375 23.253 16.7493C23.6666 17.1628 23.6666 17.8355 23.253 18.2491C22.8394 18.6627 22.1667 18.6627 21.7532 18.2491C20.826 17.3225 19.5876 16.8123 18.2665 16.8123C16.9454 16.8123 15.7064 17.3225 14.7792 18.2491L8.61566 24.4127C7.68557 25.3428 7.17368 26.5812 7.17368 27.8999C7.17368 29.2187 7.68557 30.4571 8.61566 31.3872C9.54228 32.3138 10.7812 32.8246 12.1029 32.8246C13.4246 32.8246 14.6636 32.3138 15.5902 31.3872L19.8271 27.1503C20.0272 26.9502 20.2938 26.8397 20.5767 26.8397C20.8595 26.8397 21.1262 26.9502 21.3263 27.1503C21.5264 27.3504 21.6369 27.6171 21.6369 27.8999C21.6369 28.1828 21.5264 28.4494 21.3263 28.6496L17.0894 32.8864C15.7625 34.2139 13.9914 34.945 12.1023 34.945C10.2132 34.945 8.4433 34.2139 7.11584 32.8864C5.78896 31.559 5.05784 29.7879 5.05784 27.8999C5.05784 26.012 5.78896 24.2403 7.11642 22.9129L13.28 16.7493C14.6555 15.3744 16.4613 14.6872 18.2671 14.6872H18.2665Z" fill="#2D2D2D"/>
</g>
<defs>
<clipPath id="clip0_731_38725">
<rect width="30" height="30.0029" fill="white" transform="translate(5 5)"/>
</clipPath>
</defs>
</svg>
