<svg width="22" height="22" viewBox="0 0 22 22" fill="none" xmlns="http://www.w3.org/2000/svg">
<g opacity="0.8">
<path d="M18.7002 4.40002H6.60019C5.3902 4.40002 4.4002 5.39002 4.4002 6.60002C3.1902 6.60002 2.2002 7.59002 2.2002 8.80002V16.5C2.2002 17.71 3.1902 18.7 4.4002 18.7H16.5002C17.7102 18.7 18.7002 17.71 18.7002 16.5C19.9102 16.5 20.9002 15.51 20.9002 14.3V6.60002C20.9002 5.39002 19.9102 4.40002 18.7002 4.40002ZM4.4002 7.70002H16.5002C17.1052 7.70002 17.6002 8.19502 17.6002 8.80002V14.619L14.1352 11.154C13.9372 10.956 13.6182 10.934 13.3982 11.11L8.2832 15.202L6.43519 13.354C6.21519 13.134 5.87419 13.134 5.65419 13.354L3.3002 15.719V8.80002C3.3002 8.19502 3.7952 7.70002 4.4002 7.70002ZM16.5002 17.6H4.4002C4.0152 17.6 3.6852 17.3911 3.4982 17.0831L6.05019 14.531L7.86519 16.346C8.06319 16.544 8.38219 16.5661 8.60219 16.3901L13.7172 12.298L17.5342 16.1151C17.5562 16.1371 17.5892 16.148 17.6112 16.17V16.5C17.6002 17.105 17.1052 17.6 16.5002 17.6ZM19.8002 14.3C19.8002 14.905 19.3052 15.4 18.7002 15.4V8.80002C18.7002 7.59002 17.7102 6.60002 16.5002 6.60002H5.5002C5.5002 5.99502 5.99519 5.50002 6.60019 5.50002H18.7002C19.3052 5.50002 19.8002 5.99502 19.8002 6.60002V14.3Z" fill="white"/>
<path d="M8.80059 13.2C10.0106 13.2 11.0006 12.21 11.0006 11C11.0006 9.79005 10.0106 8.80005 8.80059 8.80005C7.59059 8.80005 6.60059 9.79005 6.60059 11C6.60059 12.21 7.59059 13.2 8.80059 13.2ZM8.80059 9.90005C9.40559 9.90005 9.90059 10.395 9.90059 11C9.90059 11.605 9.40559 12.1 8.80059 12.1C8.19559 12.1 7.70059 11.605 7.70059 11C7.70059 10.395 8.19559 9.90005 8.80059 9.90005Z" fill="white"/>
</g>
</svg>
