<svg width="24" height="24" viewBox="0 0 24 24" fill="none" xmlns="http://www.w3.org/2000/svg">
<path d="M19.1111 11.1111H12.8889V4.88889C12.8889 4.39111 12.4978 4 12 4C11.5022 4 11.1111 4.39111 11.1111 4.88889V11.1111H4.88889C4.39111 11.1111 4 11.5022 4 12C4 12.4978 4.39111 12.8889 4.88889 12.8889H11.1111V19.1111C11.1111 19.6089 11.5022 20 12 20C12.4978 20 12.8889 19.6089 12.8889 19.1111V12.8889H19.1111C19.6089 12.8889 20 12.4978 20 12C20 11.5022 19.6089 11.1111 19.1111 11.1111Z" fill="#2D2D2D"/>
</svg>
