<svg width="20" height="20" viewBox="0 0 20 20" fill="none" xmlns="http://www.w3.org/2000/svg">
<path d="M10 7.375C8.5475 7.375 7.375 8.5475 7.375 10C7.375 11.4525 8.5475 12.625 10 12.625C11.4525 12.625 12.625 11.4525 12.625 10C12.625 8.5475 11.4525 7.375 10 7.375ZM10 11.75C9.0375 11.75 8.25 10.9625 8.25 10C8.25 9.0375 9.0375 8.25 10 8.25C10.9625 8.25 11.75 9.0375 11.75 10C11.75 10.9625 10.9625 11.75 10 11.75Z" fill="#2D2D2D"/>
<path d="M16.125 8.25H15.0662C14.9962 8.25 14.9263 8.20625 14.9 8.13625C14.865 8.04 14.8213 7.9525 14.7863 7.85625C14.76 7.78625 14.7687 7.7075 14.8212 7.655L15.565 6.91125C15.9062 6.57 15.9062 6.01 15.565 5.6775L14.3312 4.44375C14.165 4.2775 13.9375 4.19 13.71 4.19C13.4825 4.19 13.2637 4.2775 13.0887 4.44375L12.345 5.1875C12.2925 5.24 12.205 5.2575 12.135 5.2225C12.0475 5.17875 11.9512 5.14375 11.855 5.1C11.785 5.07375 11.7413 5.00375 11.7413 4.93375V3.875C11.7413 3.39375 11.3475 3 10.8663 3H9.11625C8.635 3 8.24125 3.39375 8.24125 3.875V4.93375C8.24125 5.0125 8.1975 5.07375 8.1275 5.1C8.03125 5.135 7.94374 5.17875 7.84749 5.21375C7.77749 5.24 7.69875 5.23125 7.64625 5.17875L6.89375 4.435C6.7275 4.26 6.5 4.1725 6.28125 4.1725C6.05375 4.1725 5.83499 4.26 5.65999 4.42625L4.42625 5.66875C4.085 6.01 4.085 6.57 4.42625 6.9025L5.17 7.64625C5.2225 7.69875 5.23125 7.7775 5.205 7.83875C5.16125 7.935 5.12625 8.03125 5.0825 8.1275C5.05625 8.1975 4.98625 8.24125 4.91625 8.24125H3.875C3.39375 8.24125 3 8.635 3 9.11625V10.8662C3 11.3475 3.39375 11.7412 3.875 11.7412H4.93376C5.00376 11.7412 5.07374 11.785 5.09999 11.855C5.13499 11.9513 5.17875 12.0388 5.21375 12.135C5.24 12.205 5.23125 12.2837 5.17875 12.3362L4.435 13.08C4.09375 13.4212 4.09375 13.9812 4.435 14.3138L5.66875 15.5475C5.835 15.7137 6.0625 15.8012 6.29 15.8012C6.5175 15.8012 6.73625 15.7137 6.91125 15.5475L7.65501 14.8037C7.70751 14.7512 7.795 14.7337 7.865 14.7687C7.9525 14.8125 8.04875 14.8475 8.145 14.8912C8.215 14.9175 8.25875 14.9875 8.25875 15.0575V16.125C8.25875 16.6062 8.6525 17 9.13375 17H10.8837C11.365 17 11.7587 16.6062 11.7587 16.125V15.0663C11.7587 14.9963 11.8025 14.9262 11.8725 14.9C11.9687 14.865 12.0563 14.8213 12.1525 14.7863C12.2225 14.76 12.3013 14.7688 12.3538 14.8213L13.0975 15.565C13.2637 15.7313 13.4913 15.8188 13.7188 15.8188C13.9462 15.8188 14.165 15.7313 14.34 15.565L15.5737 14.3312C15.915 13.99 15.915 13.43 15.5737 13.0975L14.83 12.3538C14.7775 12.3013 14.76 12.2225 14.795 12.1525C14.8387 12.065 14.8738 11.9687 14.9088 11.8725C14.935 11.8025 15.005 11.7588 15.075 11.7588H16.125C16.6062 11.7588 17 11.365 17 10.8838V9.125C17 8.64375 16.6062 8.25 16.125 8.25ZM16.125 10.525C16.125 10.7175 15.9675 10.875 15.775 10.875H14.9437C14.5762 10.875 14.2438 11.1112 14.1213 11.4612C14.0688 11.61 14.0075 11.75 13.9462 11.8813C13.7887 12.2138 13.8588 12.6163 14.1213 12.8788L14.7075 13.465C14.8475 13.605 14.8475 13.8237 14.7075 13.9637L13.9725 14.6988C13.8325 14.8388 13.6138 14.8388 13.4738 14.6988L12.8875 14.1125C12.7213 13.9462 12.4937 13.8588 12.2662 13.8588C12.135 13.8588 12.0125 13.885 11.89 13.9463C11.75 14.0163 11.61 14.0687 11.47 14.1212C11.1112 14.2437 10.875 14.5763 10.875 14.9438V15.775C10.875 15.9675 10.7175 16.125 10.525 16.125H9.47499C9.28249 16.125 9.125 15.9675 9.125 15.775V14.9438C9.125 14.5763 8.88875 14.2437 8.53875 14.1212C8.39 14.0687 8.25001 14.0075 8.11876 13.9463C7.99626 13.885 7.865 13.8588 7.7425 13.8588C7.515 13.8588 7.28751 13.9462 7.12126 14.1125L6.53499 14.6988C6.39499 14.8388 6.17625 14.8388 6.03625 14.6988L5.30125 13.9637C5.16125 13.8237 5.16125 13.605 5.30125 13.465L5.8875 12.8788C6.15 12.6163 6.22 12.2138 6.0625 11.8813C5.9925 11.7413 5.94 11.6012 5.8875 11.4612C5.75625 11.1112 5.42376 10.875 5.05626 10.875H4.22499C4.03249 10.875 3.875 10.7175 3.875 10.525V9.475C3.875 9.2825 4.03249 9.125 4.22499 9.125H5.05626C5.42376 9.125 5.75624 8.88875 5.87874 8.53875C5.93124 8.39 5.9925 8.25 6.05375 8.11875C6.21125 7.78625 6.14124 7.38375 5.87874 7.12125L5.2925 6.535C5.1525 6.395 5.1525 6.17625 5.2925 6.03625L6.03625 5.2925C6.17625 5.1525 6.395 5.1525 6.52625 5.2925L7.12126 5.87875C7.28751 6.045 7.515 6.1325 7.7425 6.1325C7.87375 6.1325 7.99626 6.10625 8.11876 6.045C8.25876 5.975 8.39875 5.9225 8.53875 5.87C8.88875 5.7475 9.125 5.415 9.125 5.0475V4.225C9.125 4.0325 9.28249 3.875 9.47499 3.875H10.525C10.7175 3.875 10.875 4.0325 10.875 4.225V5.05625C10.875 5.42375 11.1112 5.75625 11.4612 5.87875C11.61 5.93125 11.75 5.9925 11.8812 6.05375C12.0037 6.115 12.1263 6.14125 12.2575 6.14125C12.485 6.14125 12.7125 6.05375 12.8787 5.8875L13.465 5.30125C13.605 5.16125 13.8237 5.16125 13.9637 5.30125L14.6987 6.03625C14.8387 6.17625 14.8387 6.395 14.6987 6.535L14.1125 7.12125C13.85 7.38375 13.78 7.78625 13.9375 8.11875C14.0075 8.25875 14.06 8.39875 14.1125 8.53875C14.2437 8.88875 14.5762 9.125 14.9437 9.125H15.775C15.9675 9.125 16.125 9.2825 16.125 9.475V10.525Z" fill="#2D2D2D"/>
</svg>
