<svg width="20" height="20" viewBox="0 0 20 20" fill="none" xmlns="http://www.w3.org/2000/svg">
<path d="M13.9998 12C13.0698 12 12.2597 12.43 11.7097 13.09L11.7298 13.05L7.79974 11.08C7.92974 10.74 8.00977 10.38 8.00977 9.98998C8.00977 9.59998 7.92974 9.23997 7.79974 8.89997L11.7298 6.92998L11.7097 6.88998C12.2597 7.54998 13.0798 7.97998 13.9998 7.97998C15.6598 7.97998 16.9998 6.63998 16.9998 4.97998C16.9998 3.31998 15.6598 1.97998 13.9998 1.97998C12.3398 1.97998 10.9998 3.31998 10.9998 4.97998C10.9998 5.35998 11.0797 5.72998 11.2097 6.06998L7.27975 8.03997L7.29974 8.07998C6.74974 7.41998 5.92977 6.98997 5.00977 6.98997C3.34977 6.98997 2.00977 8.32998 2.00977 9.98998C2.00977 11.65 3.34977 12.99 5.00977 12.99C5.93977 12.99 6.74974 12.56 7.29974 11.9L7.27975 11.94L11.2097 13.91C11.0797 14.25 10.9998 14.61 10.9998 15C10.9998 16.66 12.3398 18 13.9998 18C15.6598 18 16.9998 16.66 16.9998 15C16.9998 13.34 15.6598 12 13.9998 12ZM13.9998 2.99998C15.0998 2.99998 15.9998 3.89998 15.9998 4.99998C15.9998 6.09998 15.0998 6.99998 13.9998 6.99998C12.8998 6.99998 11.9998 6.09998 11.9998 4.99998C11.9998 3.89998 12.8998 2.99998 13.9998 2.99998ZM4.99976 12C3.89976 12 2.99976 11.1 2.99976 9.99998C2.99976 8.89998 3.89976 7.99998 4.99976 7.99998C6.09976 7.99998 6.99976 8.89998 6.99976 9.99998C6.99976 11.1 6.09976 12 4.99976 12ZM13.9998 17C12.8998 17 11.9998 16.1 11.9998 15C11.9998 13.9 12.8998 13 13.9998 13C15.0998 13 15.9998 13.9 15.9998 15C15.9998 16.1 15.0998 17 13.9998 17Z" fill="#2D2D2D"/>
</svg>
